<svg version="1.1" viewBox="0.0 0.0 552.4645669291339 342.12073490813646" fill="none" stroke="none" stroke-linecap="square" stroke-miterlimit="10" xmlns:xlink="http://www.w3.org/1999/xlink" xmlns="http://www.w3.org/2000/svg"><clipPath id="p.0"><path d="m0 0l552.46454 0l0 342.12073l-552.46454 0l0 -342.12073z" clip-rule="nonzero"/></clipPath><g clip-path="url(#p.0)"><path fill="#000000" fill-opacity="0.0" d="m0 0l552.46454 0l0 342.12073l-552.46454 0z" fill-rule="evenodd"/><path fill="#f3f6fa" d="m2.074803 2.4934382l548.31494 0l0 337.13385l-548.31494 0z" fill-rule="evenodd"/><path fill="#434343" d="m14.777928 21.70094q0.46875 0 1.125 -0.203125l0 1.328125q-0.671875 0.3125 -1.640625 0.3125q-1.078125 0 -1.578125 -0.546875q-0.484375 -0.546875 -0.484375 -1.625l0 -3.15625l-0.84375 0l0 -0.765625l0.984375 -0.59375l0.515625 -1.390625l1.140625 0l0 1.40625l1.828125 0l0 1.34375l-1.828125 0l0 3.15625q0 0.375 0.203125 0.5625q0.21875 0.171875 0.578125 0.171875zm6.0996084 -5.359375q0.359375 0 0.609375 0.046875l-0.140625 1.671875q-0.21875 -0.046875 -0.53125 -0.046875q-0.84375 0 -1.328125 0.4375q-0.484375 0.4375 -0.484375 1.234375l0 3.328125l-1.78125 0l0 -6.546875l1.359375 0l0.265625 1.09375l0.078125 0q0.3125 -0.546875 0.828125 -0.875q0.515625 -0.34375 1.125 -0.34375zm5.9492188 6.671875l-0.34375 -0.890625l-0.046875 0q-0.453125 0.5625 -0.9375 0.796875q-0.46875 0.21875 -1.234375 0.21875q-0.9375 0 -1.484375 -0.546875q-0.546875 -0.546875 -0.546875 -1.53125q0 -1.046875 0.734375 -1.53125q0.734375 -0.5 2.203125 -0.5625l1.140625 -0.03125l0 -0.28125q0 -1.0 -1.03125 -1.0q-0.78125 0 -1.84375 0.46875l-0.59375 -1.203125q1.140625 -0.59375 2.515625 -0.59375q1.3125 0 2.015625 0.578125q0.703125 0.578125 0.703125 1.75l0 4.359375l-1.25 0zm-0.515625 -3.03125l-0.703125 0.015625q-0.78125 0.03125 -1.15625 0.296875q-0.375 0.25 -0.375 0.765625q0 0.765625 0.859375 0.765625q0.625 0 1.0 -0.359375q0.375 -0.359375 0.375 -0.953125l0 -0.53125zm9.654297 3.03125l-1.78125 0l0 -3.828125q0 -0.703125 -0.265625 -1.0625q-0.25 -0.359375 -0.796875 -0.359375q-0.75 0 -1.09375 0.5q-0.328125 0.5 -0.328125 1.671875l0 3.078125l-1.78125 0l0 -6.546875l1.359375 0l0.25 0.828125l0.09375 0q0.296875 -0.46875 0.8125 -0.703125q0.53125 -0.25 1.203125 -0.25q1.140625 0 1.734375 0.625q0.59375 0.609375 0.59375 1.78125l0 4.265625zm6.4179688 -1.953125q0 1.015625 -0.703125 1.546875q-0.703125 0.53125 -2.09375 0.53125q-0.71875 0 -1.234375 -0.109375q-0.5 -0.09375 -0.9375 -0.28125l0 -1.46875q0.5 0.234375 1.125 0.390625q0.625 0.15625 1.09375 0.15625q0.984375 0 0.984375 -0.5625q0 -0.21875 -0.140625 -0.34375q-0.125 -0.140625 -0.4375 -0.296875q-0.3125 -0.171875 -0.84375 -0.390625q-0.75 -0.3125 -1.109375 -0.578125q-0.359375 -0.28125 -0.515625 -0.625q-0.15625 -0.359375 -0.15625 -0.859375q0 -0.875 0.671875 -1.34375q0.671875 -0.484375 1.921875 -0.484375q1.171875 0 2.296875 0.515625l-0.53125 1.28125q-0.5 -0.203125 -0.9375 -0.328125q-0.421875 -0.140625 -0.859375 -0.140625q-0.796875 0 -0.796875 0.421875q0 0.234375 0.25 0.421875q0.265625 0.171875 1.125 0.515625q0.765625 0.3125 1.125 0.578125q0.359375 0.265625 0.53125 0.625q0.171875 0.34375 0.171875 0.828125zm7.2460938 1.953125l-1.78125 0l0 -3.828125q0 -0.703125 -0.234375 -1.0625q-0.234375 -0.359375 -0.75 -0.359375q-0.6875 0 -1.0 0.515625q-0.3125 0.5 -0.3125 1.65625l0 3.078125l-1.78125 0l0 -6.546875l1.359375 0l0.25 0.828125l0.09375 0q0.265625 -0.453125 0.765625 -0.703125q0.5 -0.25 1.140625 -0.25q1.46875 0 2.0 0.953125l0.15625 0q0.265625 -0.453125 0.765625 -0.703125q0.515625 -0.25 1.15625 -0.25q1.125 0 1.6875 0.578125q0.578125 0.5625 0.578125 1.828125l0 4.265625l-1.796875 0l0 -3.828125q0 -0.703125 -0.234375 -1.0625q-0.234375 -0.359375 -0.75 -0.359375q-0.65625 0 -0.984375 0.46875q-0.328125 0.46875 -0.328125 1.5l0 3.28125zm10.080078 0l-0.34375 -0.890625l-0.046875 0q-0.453125 0.5625 -0.9375 0.796875q-0.46875 0.21875 -1.234375 0.21875q-0.9375 0 -1.484375 -0.546875q-0.546875 -0.546875 -0.546875 -1.53125q0 -1.046875 0.734375 -1.53125q0.734375 -0.5 2.203125 -0.5625l1.140625 -0.03125l0 -0.28125q0 -1.0 -1.03125 -1.0q-0.78125 0 -1.84375 0.46875l-0.59375 -1.203125q1.140625 -0.59375 2.515625 -0.59375q1.3125 0 2.015625 0.578125q0.703125 0.578125 0.703125 1.75l0 4.359375l-1.25 0zm-0.515625 -3.03125l-0.703125 0.015625q-0.78125 0.03125 -1.15625 0.296875q-0.375 0.25 -0.375 0.765625q0 0.765625 0.859375 0.765625q0.625 0 1.0 -0.359375q0.375 -0.359375 0.375 -0.953125l0 -0.53125zm7.2636757 -3.640625q0.359375 0 0.609375 0.046875l-0.140625 1.671875q-0.21875 -0.046875 -0.53125 -0.046875q-0.84375 0 -1.328125 0.4375q-0.484375 0.4375 -0.484375 1.234375l0 3.328125l-1.7812538 0l0 -6.546875l1.3593788 0l0.265625 1.09375l0.078125 0q0.3125 -0.546875 0.828125 -0.875q0.515625 -0.34375 1.125 -0.34375zm4.5585938 5.359375q0.46875 0 1.125 -0.203125l0 1.328125q-0.671875 0.3125 -1.640625 0.3125q-1.078125 0 -1.578125 -0.546875q-0.484375 -0.546875 -0.484375 -1.625l0 -3.15625l-0.84375 0l0 -0.765625l0.984375 -0.59375l0.515625 -1.390625l1.140625 0l0 1.40625l1.828125 0l0 1.34375l-1.828125 0l0 3.15625q0 0.375 0.203125 0.5625q0.21875 0.171875 0.578125 0.171875zm9.576172 1.3125l-1.8125 0l0 -4.953125l0.03125 -0.8125l0.015625 -0.890625q-0.4375 0.4375 -0.625 0.578125l-0.984375 0.796875l-0.875 -1.09375l2.765625 -2.1875l1.484375 0l0 8.5625zm3.2246094 0l3.21875 -7.03125l-4.21875 0l0 -1.53125l6.140625 0l0 1.140625l-3.234375 7.421875l-1.90625 0zm6.2089844 -0.84375q0 -0.484375 0.265625 -0.734375q0.265625 -0.25 0.765625 -0.25q0.484375 0 0.75 0.265625q0.265625 0.25 0.265625 0.71875q0 0.46875 -0.265625 0.734375q-0.265625 0.265625 -0.75 0.265625q-0.5 0 -0.765625 -0.25q-0.265625 -0.265625 -0.265625 -0.75zm7.6875 0.84375l-1.8125 0l0 -4.953125l0.03125 -0.8125l0.015625 -0.890625q-0.4375 0.4375 -0.625 0.578125l-0.984375 0.796875l-0.875 -1.09375l2.765625 -2.1875l1.484375 0l0 8.5625z" fill-rule="nonzero"/><path fill="#159957" d="m340.9462 221.66667l183.71652 0l0 98.92912l-183.71652 0z" fill-rule="evenodd"/><path fill="#ffffff" d="m362.33682 248.58667l-3.203125 0l-3.5 -5.609375l-1.1875 0.859375l0 4.75l-2.828125 0l0 -13.3125l2.828125 0l0 6.09375l1.109375 -1.578125l3.609375 -4.515625l3.140625 0l-4.65625 5.890625l4.6875 7.421875zm5.670166 -8.40625q-0.875 0 -1.375 0.5625q-0.5 0.5625 -0.578125 1.59375l3.890625 0q-0.015625 -1.03125 -0.53125 -1.59375q-0.515625 -0.5625 -1.40625 -0.5625zm0.390625 8.59375q-2.453125 0 -3.84375 -1.359375q-1.375 -1.359375 -1.375 -3.84375q0 -2.5625 1.265625 -3.953125q1.28125 -1.40625 3.546875 -1.40625q2.15625 0 3.359375 1.234375q1.203125 1.21875 1.203125 3.390625l0 1.34375l-6.5625 0q0.046875 1.1875 0.703125 1.859375q0.65625 0.65625 1.828125 0.65625q0.921875 0 1.734375 -0.1875q0.828125 -0.1875 1.71875 -0.609375l0 2.15625q-0.71875 0.359375 -1.546875 0.53125q-0.828125 0.1875 -2.03125 0.1875zm4.9599915 -10.375l3.046875 0l1.921875 5.734375q0.234375 0.75 0.328125 1.765625l0.0625 0q0.09375 -0.9375 0.390625 -1.765625l1.890625 -5.734375l2.96875 0l-4.3125 11.484375q-0.578125 1.59375 -1.6875 2.390625q-1.09375 0.796875 -2.5625 0.796875q-0.71875 0 -1.40625 -0.15625l0 -2.203125q0.5 0.109375 1.09375 0.109375q0.734375 0 1.28125 -0.453125q0.5625 -0.4375 0.859375 -1.359375l0.171875 -0.5l-4.046875 -10.109375zm17.940674 -0.96875q-1.59375 0 -2.46875 1.203125q-0.875 1.1875 -0.875 3.328125q0 4.453125 3.34375 4.453125q1.40625 0 3.40625 -0.703125l0 2.375q-1.640625 0.6875 -3.671875 0.6875q-2.90625 0 -4.453125 -1.765625q-1.53125 -1.765625 -1.53125 -5.0625q0 -2.078125 0.75 -3.640625q0.765625 -1.5625 2.171875 -2.390625q1.421875 -0.84375 3.328125 -0.84375q1.953125 0 3.90625 0.9375l-0.90625 2.296875q-0.75 -0.34375 -1.515625 -0.609375q-0.75 -0.265625 -1.484375 -0.265625zm8.794159 11.15625l-2.78125 0l0 -14.171875l2.78125 0l0 14.171875zm5.1309204 -5.109375q0 1.515625 0.5 2.296875q0.5 0.765625 1.609375 0.765625q1.109375 0 1.59375 -0.765625q0.5 -0.78125 0.5 -2.296875q0 -1.515625 -0.5 -2.265625q-0.484375 -0.765625 -1.609375 -0.765625q-1.109375 0 -1.609375 0.765625q-0.484375 0.75 -0.484375 2.265625zm7.046875 0q0 2.484375 -1.3125 3.890625q-1.3125 1.40625 -3.65625 1.40625q-1.46875 0 -2.59375 -0.640625q-1.109375 -0.65625 -1.71875 -1.84375q-0.59375 -1.203125 -0.59375 -2.8125q0 -2.5 1.296875 -3.875q1.296875 -1.390625 3.65625 -1.390625q1.46875 0 2.59375 0.640625q1.125 0.640625 1.71875 1.828125q0.609375 1.1875 0.609375 2.796875zm8.753967 5.109375l-0.53125 -1.390625l-0.078125 0q-0.703125 0.890625 -1.453125 1.234375q-0.734375 0.34375 -1.921875 0.34375q-1.46875 0 -2.3125 -0.84375q-0.84375 -0.84375 -0.84375 -2.390625q0 -1.625 1.125 -2.390625q1.140625 -0.765625 3.4375 -0.84375l1.765625 -0.0625l0 -0.4375q0 -1.546875 -1.59375 -1.546875q-1.21875 0 -2.859375 0.734375l-0.921875 -1.875q1.75 -0.921875 3.890625 -0.921875q2.046875 0 3.140625 0.890625q1.09375 0.890625 1.09375 2.71875l0 6.78125l-1.9375 0zm-0.8125 -4.71875l-1.078125 0.03125q-1.21875 0.046875 -1.8125 0.453125q-0.578125 0.390625 -0.578125 1.203125q0 1.1875 1.34375 1.1875q0.96875 0 1.546875 -0.546875q0.578125 -0.5625 0.578125 -1.484375l0 -0.84375zm8.284088 -0.8125l1.21875 -1.5625l2.84375 -3.09375l3.140625 0l-4.046875 4.421875l4.28125 5.765625l-3.203125 0l-2.9375 -4.125l-1.1875 0.953125l0 3.171875l-2.78125 0l0 -14.171875l2.78125 0l0 6.3125l-0.140625 2.328125l0.03125 0z" fill-rule="nonzero"/><path fill="#d9d9d9" d="m351.68057 257.20355l0 3.703125q0 0.6875 0.3125 1.03125q0.3125 0.34375 0.984375 0.34375q0.90625 0 1.3125 -0.484375q0.421875 -0.484375 0.421875 -1.59375l0 -3.0l0.859375 0l0 5.703125l-0.71875 0l-0.125 -0.765625l-0.046875 0q-0.265625 0.421875 -0.734375 0.65625q-0.46875 0.21875 -1.078125 0.21875q-1.03125 0 -1.546875 -0.5q-0.515625 -0.5 -0.515625 -1.578125l0 -3.734375l0.875 0zm9.399841 4.140625q0 0.796875 -0.59375 1.234375q-0.59375 0.4375 -1.65625 0.4375q-1.140625 0 -1.78125 -0.359375l0 -0.8125q0.421875 0.21875 0.890625 0.34375q0.46875 0.109375 0.90625 0.109375q0.671875 0 1.03125 -0.21875q0.375 -0.21875 0.375 -0.65625q0 -0.328125 -0.296875 -0.5625q-0.28125 -0.25 -1.125 -0.5625q-0.796875 -0.296875 -1.140625 -0.515625q-0.328125 -0.21875 -0.5 -0.5q-0.15625 -0.28125 -0.15625 -0.671875q0 -0.703125 0.5625 -1.109375q0.578125 -0.40625 1.5625 -0.40625q0.921875 0 1.796875 0.375l-0.296875 0.703125q-0.859375 -0.34375 -1.5625 -0.34375q-0.609375 0 -0.921875 0.1875q-0.3125 0.1875 -0.3125 0.53125q0 0.234375 0.109375 0.390625q0.125 0.15625 0.375 0.3125q0.265625 0.140625 1.0 0.421875q1.015625 0.359375 1.375 0.734375q0.359375 0.375 0.359375 0.9375zm3.8179626 1.671875q-1.265625 0 -2.0 -0.765625q-0.734375 -0.78125 -0.734375 -2.140625q0 -1.390625 0.671875 -2.203125q0.6875 -0.8125 1.828125 -0.8125q1.078125 0 1.703125 0.71875q0.625 0.703125 0.625 1.859375l0 0.546875l-3.921875 0q0.015625 1.0 0.5 1.515625q0.484375 0.515625 1.359375 0.515625q0.921875 0 1.8125 -0.375l0 0.765625q-0.453125 0.203125 -0.859375 0.28125q-0.40625 0.09375 -0.984375 0.09375zm-0.234375 -5.1875q-0.6875 0 -1.09375 0.453125q-0.40625 0.4375 -0.484375 1.234375l2.984375 0q0 -0.828125 -0.375 -1.25q-0.359375 -0.4375 -1.03125 -0.4375zm6.4003906 -0.734375q0.375 0 0.6875 0.0625l-0.125 0.8125q-0.359375 -0.078125 -0.625 -0.078125q-0.6875 0 -1.1875 0.5625q-0.484375 0.5625 -0.484375 1.390625l0 3.0625l-0.859375 0l0 -5.703125l0.703125 0l0.109375 1.0625l0.03125 0q0.328125 -0.5625 0.765625 -0.859375q0.453125 -0.3125 0.984375 -0.3125zm11.789917 5.8125l0 -3.703125q0 -0.6875 -0.296875 -1.03125q-0.28125 -0.34375 -0.90625 -0.34375q-0.796875 0 -1.1875 0.46875q-0.390625 0.46875 -0.390625 1.421875l0 3.1875l-0.859375 0l0 -3.703125q0 -0.6875 -0.296875 -1.03125q-0.28125 -0.34375 -0.90625 -0.34375q-0.8125 0 -1.1875 0.5q-0.375 0.484375 -0.375 1.59375l0 2.984375l-0.859375 0l0 -5.703125l0.703125 0l0.140625 0.78125l0.03125 0q0.25 -0.421875 0.6875 -0.65625q0.453125 -0.234375 1.0 -0.234375q1.34375 0 1.75 0.96875l0.046875 0q0.25 -0.4375 0.734375 -0.703125q0.484375 -0.265625 1.109375 -0.265625q0.953125 0 1.4375 0.5q0.484375 0.5 0.484375 1.59375l0 3.71875l-0.859375 0zm6.146576 0l-0.171875 -0.8125l-0.046875 0q-0.421875 0.53125 -0.84375 0.734375q-0.421875 0.1875 -1.0625 0.1875q-0.84375 0 -1.328125 -0.4375q-0.484375 -0.4375 -0.484375 -1.25q0 -1.71875 2.765625 -1.8125l0.96875 -0.03125l0 -0.34375q0 -0.671875 -0.296875 -0.984375q-0.28125 -0.328125 -0.921875 -0.328125q-0.703125 0 -1.609375 0.4375l-0.265625 -0.671875q0.421875 -0.21875 0.921875 -0.34375q0.515625 -0.140625 1.015625 -0.140625q1.015625 0 1.5 0.453125q0.5 0.453125 0.5 1.453125l0 3.890625l-0.640625 0zm-1.953125 -0.609375q0.8125 0 1.265625 -0.4375q0.46875 -0.453125 0.46875 -1.25l0 -0.5l-0.875 0.03125q-1.015625 0.03125 -1.484375 0.3125q-0.453125 0.28125 -0.453125 0.890625q0 0.46875 0.28125 0.71875q0.296875 0.234375 0.796875 0.234375zm8.270233 0.609375l0 -3.6875q0 -0.703125 -0.3125 -1.046875q-0.3125 -0.34375 -1.0 -0.34375q-0.890625 0 -1.3125 0.484375q-0.40625 0.484375 -0.40625 1.609375l0 2.984375l-0.859375 0l0 -5.703125l0.703125 0l0.140625 0.78125l0.03125 0q0.265625 -0.421875 0.734375 -0.65625q0.484375 -0.234375 1.078125 -0.234375q1.03125 0 1.546875 0.5q0.53125 0.5 0.53125 1.59375l0 3.71875l-0.875 0zm6.149872 0l-0.171875 -0.8125l-0.046875 0q-0.421875 0.53125 -0.84375 0.734375q-0.421875 0.1875 -1.0625 0.1875q-0.84375 0 -1.328125 -0.4375q-0.484375 -0.4375 -0.484375 -1.25q0 -1.71875 2.765625 -1.8125l0.96875 -0.03125l0 -0.34375q0 -0.671875 -0.296875 -0.984375q-0.28125 -0.328125 -0.921875 -0.328125q-0.703125 0 -1.609375 0.4375l-0.265625 -0.671875q0.421875 -0.21875 0.921875 -0.34375q0.515625 -0.140625 1.015625 -0.140625q1.015625 0 1.5 0.453125q0.5 0.453125 0.5 1.453125l0 3.890625l-0.640625 0zm-1.953125 -0.609375q0.8125 0 1.265625 -0.4375q0.46875 -0.453125 0.46875 -1.25l0 -0.5l-0.875 0.03125q-1.015625 0.03125 -1.484375 0.3125q-0.453125 0.28125 -0.453125 0.890625q0 0.46875 0.28125 0.71875q0.296875 0.234375 0.796875 0.234375zm9.035858 -5.09375l0 0.546875l-1.046875 0.125q0.140625 0.1875 0.25 0.484375q0.125 0.28125 0.125 0.65625q0 0.84375 -0.578125 1.34375q-0.578125 0.484375 -1.578125 0.484375q-0.25 0 -0.46875 -0.03125q-0.546875 0.28125 -0.546875 0.734375q0 0.234375 0.1875 0.34375q0.1875 0.109375 0.65625 0.109375l1.015625 0q0.921875 0 1.421875 0.390625q0.5 0.390625 0.5 1.140625q0 0.9375 -0.765625 1.4375q-0.765625 0.5 -2.21875 0.5q-1.109375 0 -1.71875 -0.421875q-0.609375 -0.40625 -0.609375 -1.171875q0 -0.515625 0.328125 -0.90625q0.34375 -0.375 0.9375 -0.515625q-0.21875 -0.09375 -0.375 -0.296875q-0.140625 -0.21875 -0.140625 -0.484375q0 -0.3125 0.171875 -0.546875q0.171875 -0.234375 0.53125 -0.453125q-0.453125 -0.1875 -0.734375 -0.625q-0.265625 -0.4375 -0.265625 -1.0q0 -0.9375 0.5625 -1.4375q0.5625 -0.515625 1.578125 -0.515625q0.453125 0 0.8125 0.109375l1.96875 0zm-4.546875 6.65625q0 0.46875 0.390625 0.703125q0.390625 0.25 1.125 0.25q1.078125 0 1.59375 -0.328125q0.53125 -0.328125 0.53125 -0.890625q0 -0.453125 -0.28125 -0.640625q-0.28125 -0.171875 -1.078125 -0.171875l-1.03125 0q-0.59375 0 -0.921875 0.28125q-0.328125 0.28125 -0.328125 0.796875zm0.46875 -4.828125q0 0.59375 0.34375 0.90625q0.34375 0.296875 0.9375 0.296875q1.265625 0 1.265625 -1.21875q0 -1.28125 -1.28125 -1.28125q-0.609375 0 -0.9375 0.328125q-0.328125 0.328125 -0.328125 0.96875zm7.666168 3.984375q-1.265625 0 -2.0 -0.765625q-0.734375 -0.78125 -0.734375 -2.140625q0 -1.390625 0.671875 -2.203125q0.6875 -0.8125 1.828125 -0.8125q1.078125 0 1.703125 0.71875q0.625 0.703125 0.625 1.859375l0 0.546875l-3.921875 0q0.015625 1.0 0.5 1.515625q0.484375 0.515625 1.359375 0.515625q0.921875 0 1.8125 -0.375l0 0.765625q-0.453125 0.203125 -0.859375 0.28125q-0.40625 0.09375 -0.984375 0.09375zm-0.234375 -5.1875q-0.6875 0 -1.09375 0.453125q-0.40625 0.4375 -0.484375 1.234375l2.984375 0q0 -0.828125 -0.375 -1.25q-0.359375 -0.4375 -1.03125 -0.4375zm11.072296 5.078125l0 -3.703125q0 -0.6875 -0.296875 -1.03125q-0.28125 -0.34375 -0.90625 -0.34375q-0.796875 0 -1.1875 0.46875q-0.390625 0.46875 -0.390625 1.421875l0 3.1875l-0.859375 0l0 -3.703125q0 -0.6875 -0.296875 -1.03125q-0.28125 -0.34375 -0.90625 -0.34375q-0.8125 0 -1.1875 0.5q-0.375 0.484375 -0.375 1.59375l0 2.984375l-0.859375 0l0 -5.703125l0.703125 0l0.140625 0.78125l0.03125 0q0.25 -0.421875 0.6875 -0.65625q0.453125 -0.234375 1.0 -0.234375q1.34375 0 1.75 0.96875l0.046875 0q0.25 -0.4375 0.734375 -0.703125q0.484375 -0.265625 1.109375 -0.265625q0.953125 0 1.4375 0.5q0.484375 0.5 0.484375 1.59375l0 3.71875l-0.859375 0zm5.0527954 0.109375q-1.265625 0 -2.0 -0.765625q-0.734375 -0.78125 -0.734375 -2.140625q0 -1.390625 0.671875 -2.203125q0.6875 -0.8125 1.828125 -0.8125q1.078125 0 1.703125 0.71875q0.625 0.703125 0.625 1.859375l0 0.546875l-3.921875 0q0.015625 1.0 0.5 1.515625q0.484375 0.515625 1.359375 0.515625q0.921875 0 1.8125 -0.375l0 0.765625q-0.453125 0.203125 -0.859375 0.28125q-0.40625 0.09375 -0.984375 0.09375zm-0.234375 -5.1875q-0.6875 0 -1.09375 0.453125q-0.40625 0.4375 -0.484375 1.234375l2.984375 0q0 -0.828125 -0.375 -1.25q-0.359375 -0.4375 -1.03125 -0.4375zm7.697296 5.078125l0 -3.6875q0 -0.703125 -0.3125 -1.046875q-0.3125 -0.34375 -1.0 -0.34375q-0.890625 0 -1.3125 0.484375q-0.40625 0.484375 -0.40625 1.609375l0 2.984375l-0.859375 0l0 -5.703125l0.703125 0l0.140625 0.78125l0.03125 0q0.265625 -0.421875 0.734375 -0.65625q0.484375 -0.234375 1.078125 -0.234375q1.03125 0 1.546875 0.5q0.53125 0.5 0.53125 1.59375l0 3.71875l-0.875 0zm4.4779663 -0.609375q0.234375 0 0.4375 -0.03125q0.21875 -0.03125 0.34375 -0.078125l0 0.671875q-0.140625 0.0625 -0.421875 0.109375q-0.265625 0.046875 -0.46875 0.046875q-1.65625 0 -1.65625 -1.75l0 -3.390625l-0.828125 0l0 -0.421875l0.828125 -0.359375l0.359375 -1.2187653l0.5 0l0 1.3281403l1.65625 0l0 0.671875l-1.65625 0l0 3.359375q0 0.515625 0.234375 0.796875q0.25 0.265625 0.671875 0.265625z" fill-rule="nonzero"/><path fill="#d9d9d9" d="m354.36807 275.90668l-0.171875 -0.8125l-0.046875 0q-0.421875 0.53125 -0.84375 0.734375q-0.421875 0.1875 -1.0625 0.1875q-0.84375 0 -1.328125 -0.4375q-0.484375 -0.4375 -0.484375 -1.25q0 -1.71875 2.765625 -1.8125l0.96875 -0.03125l0 -0.34375q0 -0.671875 -0.296875 -0.984375q-0.28125 -0.328125 -0.921875 -0.328125q-0.703125 0 -1.609375 0.4375l-0.265625 -0.671875q0.421875 -0.21875 0.921875 -0.34375q0.515625 -0.140625 1.015625 -0.140625q1.015625 0 1.5 0.453125q0.5 0.453125 0.5 1.453125l0 3.890625l-0.640625 0zm-1.953125 -0.609375q0.8125 0 1.265625 -0.4375q0.46875 -0.453125 0.46875 -1.25l0 -0.5l-0.875 0.03125q-1.015625 0.03125 -1.484375 0.3125q-0.453125 0.28125 -0.453125 0.890625q0 0.46875 0.28125 0.71875q0.296875 0.234375 0.796875 0.234375zm5.192108 -5.09375l0 3.703125q0 0.6875 0.3125 1.03125q0.3125 0.34375 0.984375 0.34375q0.90625 0 1.3125 -0.484375q0.421875 -0.484375 0.421875 -1.59375l0 -3.0l0.859375 0l0 5.703125l-0.71875 0l-0.125 -0.765625l-0.046875 0q-0.265625 0.421875 -0.734375 0.65625q-0.46875 0.21875 -1.078125 0.21875q-1.03125 0 -1.546875 -0.5q-0.515625 -0.5 -0.515625 -1.578125l0 -3.734375l0.875 0zm7.556122 5.09375q0.234375 0 0.4375 -0.03125q0.21875 -0.03125 0.34375 -0.078125l0 0.671875q-0.140625 0.0625 -0.421875 0.109375q-0.265625 0.046875 -0.46875 0.046875q-1.65625 0 -1.65625 -1.75l0 -3.390625l-0.828125 0l0 -0.421875l0.828125 -0.359375l0.359375 -1.21875l0.5 0l0 1.328125l1.65625 0l0 0.671875l-1.65625 0l0 3.359375q0 0.515625 0.234375 0.796875q0.25 0.265625 0.671875 0.265625zm5.8244324 0.609375l0 -3.6875q0 -0.703125 -0.3125 -1.046875q-0.3125 -0.34375 -1.0 -0.34375q-0.890625 0 -1.3125 0.5q-0.40625 0.484375 -0.40625 1.59375l0 2.984375l-0.859375 0l0 -8.09375l0.859375 0l0 2.453125q0 0.4375 -0.046875 0.734375l0.0625 0q0.25 -0.421875 0.71875 -0.65625q0.46875 -0.234375 1.078125 -0.234375q1.046875 0 1.5625 0.5q0.53125 0.5 0.53125 1.578125l0 3.71875l-0.875 0zm5.056122 0.109375q-1.265625 0 -2.0 -0.765625q-0.734375 -0.78125 -0.734375 -2.140625q0 -1.390625 0.671875 -2.203125q0.6875 -0.8125 1.828125 -0.8125q1.078125 0 1.703125 0.71875q0.625 0.703125 0.625 1.859375l0 0.546875l-3.921875 0q0.015625 1.0 0.5 1.515625q0.484375 0.515625 1.359375 0.515625q0.921875 0 1.8125 -0.375l0 0.765625q-0.453125 0.203125 -0.859375 0.28125q-0.40625 0.09375 -0.984375 0.09375zm-0.234375 -5.1875q-0.6875 0 -1.09375 0.453125q-0.40625 0.4375 -0.484375 1.234375l2.984375 0q0 -0.828125 -0.375 -1.25q-0.359375 -0.4375 -1.03125 -0.4375zm7.6972656 5.078125l0 -3.6875q0 -0.703125 -0.3125 -1.046875q-0.3125 -0.34375 -1.0 -0.34375q-0.890625 0 -1.3125 0.484375q-0.40625 0.484375 -0.40625 1.609375l0 2.984375l-0.859375 0l0 -5.703125l0.703125 0l0.140625 0.78125l0.03125 0q0.265625 -0.421875 0.734375 -0.65625q0.484375 -0.234375 1.078125 -0.234375q1.03125 0 1.546875 0.5q0.53125 0.5 0.53125 1.59375l0 3.71875l-0.875 0zm4.477997 -0.609375q0.234375 0 0.4375 -0.03125q0.21875 -0.03125 0.34375 -0.078125l0 0.671875q-0.140625 0.0625 -0.421875 0.109375q-0.265625 0.046875 -0.46875 0.046875q-1.65625 0 -1.65625 -1.75l0 -3.390625l-0.828125 0l0 -0.421875l0.828125 -0.359375l0.359375 -1.21875l0.5 0l0 1.328125l1.65625 0l0 0.671875l-1.65625 0l0 3.359375q0 0.515625 0.234375 0.796875q0.25 0.265625 0.671875 0.265625zm2.7931824 0.609375l-0.859375 0l0 -5.703125l0.859375 0l0 5.703125zm-0.9375 -7.25q0 -0.296875 0.140625 -0.4375q0.15625 -0.140625 0.375 -0.140625q0.203125 0 0.34375 0.140625q0.15625 0.140625 0.15625 0.4375q0 0.296875 -0.15625 0.4375q-0.140625 0.140625 -0.34375 0.140625q-0.21875 0 -0.375 -0.140625q-0.140625 -0.140625 -0.140625 -0.4375zm5.039032 7.359375q-1.234375 0 -1.921875 -0.765625q-0.671875 -0.765625 -0.671875 -2.15625q0 -1.4375 0.6875 -2.21875q0.703125 -0.78125 1.96875 -0.78125q0.40625 0 0.8125 0.09375q0.421875 0.09375 0.65625 0.203125l-0.265625 0.734375q-0.28125 -0.109375 -0.625 -0.1875q-0.34375 -0.078125 -0.59375 -0.078125q-1.734375 0 -1.734375 2.21875q0 1.046875 0.421875 1.609375q0.421875 0.5625 1.25 0.5625q0.71875 0 1.46875 -0.296875l0 0.765625q-0.578125 0.296875 -1.453125 0.296875zm6.307556 -0.109375l-0.171875 -0.8125l-0.046875 0q-0.421875 0.53125 -0.84375 0.734375q-0.421875 0.1875 -1.0625 0.1875q-0.84375 0 -1.328125 -0.4375q-0.484375 -0.4375 -0.484375 -1.25q0 -1.71875 2.765625 -1.8125l0.96875 -0.03125l0 -0.34375q0 -0.671875 -0.296875 -0.984375q-0.28125 -0.328125 -0.921875 -0.328125q-0.703125 0 -1.609375 0.4375l-0.265625 -0.671875q0.421875 -0.21875 0.921875 -0.34375q0.515625 -0.140625 1.015625 -0.140625q1.015625 0 1.5 0.453125q0.5 0.453125 0.5 1.453125l0 3.890625l-0.640625 0zm-1.953125 -0.609375q0.8125 0 1.265625 -0.4375q0.46875 -0.453125 0.46875 -1.25l0 -0.5l-0.875 0.03125q-1.015625 0.03125 -1.484375 0.3125q-0.453125 0.28125 -0.453125 0.890625q0 0.46875 0.28125 0.71875q0.296875 0.234375 0.796875 0.234375zm6.207733 0q0.234375 0 0.4375 -0.03125q0.21875 -0.03125 0.34375 -0.078125l0 0.671875q-0.140625 0.0625 -0.421875 0.109375q-0.265625 0.046875 -0.46875 0.046875q-1.65625 0 -1.65625 -1.75l0 -3.390625l-0.828125 0l0 -0.421875l0.828125 -0.359375l0.359375 -1.21875l0.5 0l0 1.328125l1.65625 0l0 0.671875l-1.65625 0l0 3.359375q0 0.515625 0.234375 0.796875q0.25 0.265625 0.671875 0.265625zm2.793213 0.609375l-0.859375 0l0 -5.703125l0.859375 0l0 5.703125zm-0.9375 -7.25q0 -0.296875 0.140625 -0.4375q0.15625 -0.140625 0.375 -0.140625q0.203125 0 0.34375 0.140625q0.15625 0.140625 0.15625 0.4375q0 0.296875 -0.15625 0.4375q-0.140625 0.140625 -0.34375 0.140625q-0.21875 0 -0.375 -0.140625q-0.140625 -0.140625 -0.140625 -0.4375zm7.695282 4.390625q0 1.390625 -0.703125 2.1875q-0.703125 0.78125 -1.953125 0.78125q-0.75 0 -1.34375 -0.359375q-0.59375 -0.359375 -0.921875 -1.03125q-0.328125 -0.671875 -0.328125 -1.578125q0 -1.390625 0.703125 -2.171875q0.703125 -0.78125 1.9375 -0.78125q1.1875 0 1.890625 0.796875q0.71875 0.796875 0.71875 2.15625zm-4.34375 0q0 1.09375 0.4375 1.671875q0.4375 0.5625 1.28125 0.5625q0.84375 0 1.28125 -0.5625q0.4375 -0.578125 0.4375 -1.671875q0 -1.078125 -0.4375 -1.640625q-0.4375 -0.578125 -1.296875 -0.578125q-0.84375 0 -1.28125 0.5625q-0.421875 0.5625 -0.421875 1.65625zm9.748901 2.859375l0 -3.6875q0 -0.703125 -0.3125 -1.046875q-0.3125 -0.34375 -1.0 -0.34375q-0.890625 0 -1.3125 0.484375q-0.40625 0.484375 -0.40625 1.609375l0 2.984375l-0.859375 0l0 -5.703125l0.703125 0l0.140625 0.78125l0.03125 0q0.265625 -0.421875 0.734375 -0.65625q0.484375 -0.234375 1.078125 -0.234375q1.03125 0 1.546875 0.5q0.53125 0.5 0.53125 1.59375l0 3.71875l-0.875 0zm6.6523743 -6.09375q0 0.359375 0.1875 0.6875q0.1875 0.328125 0.640625 0.78125q0.671875 -0.390625 0.921875 -0.71875q0.265625 -0.328125 0.265625 -0.765625q0 -0.40625 -0.265625 -0.65625q-0.265625 -0.25 -0.71875 -0.25q-0.453125 0 -0.75 0.25q-0.28125 0.25 -0.28125 0.671875zm0.796875 5.421875q1.265625 0 2.09375 -0.796875l-2.28125 -2.203125q-0.578125 0.34375 -0.8125 0.578125q-0.234375 0.234375 -0.359375 0.5q-0.109375 0.265625 -0.109375 0.59375q0 0.609375 0.40625 0.96875q0.40625 0.359375 1.0625 0.359375zm-2.359375 -1.296875q0 -0.6875 0.359375 -1.203125q0.359375 -0.515625 1.296875 -1.046875q-0.4375 -0.5 -0.609375 -0.75q-0.15625 -0.25 -0.25 -0.53125q-0.09375 -0.28125 -0.09375 -0.578125q0 -0.78125 0.515625 -1.21875q0.515625 -0.4375 1.421875 -0.4375q0.84375 0 1.328125 0.4375q0.484375 0.4375 0.484375 1.21875q0 0.546875 -0.359375 1.03125q-0.359375 0.46875 -1.171875 0.953125l2.125 2.03125q0.28125 -0.328125 0.453125 -0.75q0.1875 -0.4375 0.296875 -0.953125l0.875 0q-0.34375 1.484375 -1.0625 2.25l1.5625 1.515625l-1.203125 0l-0.953125 -0.921875q-0.625 0.546875 -1.265625 0.796875q-0.625 0.234375 -1.40625 0.234375q-1.109375 0 -1.734375 -0.546875q-0.609375 -0.5625 -0.609375 -1.53125zm14.375092 1.96875l-0.171875 -0.8125l-0.046875 0q-0.421875 0.53125 -0.84375 0.734375q-0.421875 0.1875 -1.0625 0.1875q-0.84375 0 -1.328125 -0.4375q-0.484375 -0.4375 -0.484375 -1.25q0 -1.71875 2.765625 -1.8125l0.96875 -0.03125l0 -0.34375q0 -0.671875 -0.296875 -0.984375q-0.28125 -0.328125 -0.921875 -0.328125q-0.703125 0 -1.609375 0.4375l-0.265625 -0.671875q0.421875 -0.21875 0.921875 -0.34375q0.515625 -0.140625 1.015625 -0.140625q1.015625 0 1.5 0.453125q0.5 0.453125 0.5 1.453125l0 3.890625l-0.640625 0zm-1.953125 -0.609375q0.8125 0 1.265625 -0.4375q0.46875 -0.453125 0.46875 -1.25l0 -0.5l-0.875 0.03125q-1.015625 0.03125 -1.484375 0.3125q-0.453125 0.28125 -0.453125 0.890625q0 0.46875 0.28125 0.71875q0.296875 0.234375 0.796875 0.234375zm5.1921387 -5.09375l0 3.703125q0 0.6875 0.3125 1.03125q0.3125 0.34375 0.984375 0.34375q0.90625 0 1.3125 -0.484375q0.421875 -0.484375 0.421875 -1.59375l0 -3.0l0.859375 0l0 5.703125l-0.71875 0l-0.125 -0.765625l-0.046875 0q-0.265625 0.421875 -0.734375 0.65625q-0.46875 0.21875 -1.078125 0.21875q-1.03125 0 -1.546875 -0.5q-0.515625 -0.5 -0.515625 -1.578125l0 -3.734375l0.875 0zm7.5560913 5.09375q0.234375 0 0.4375 -0.03125q0.21875 -0.03125 0.34375 -0.078125l0 0.671875q-0.140625 0.0625 -0.421875 0.109375q-0.265625 0.046875 -0.46875 0.046875q-1.65625 0 -1.65625 -1.75l0 -3.390625l-0.828125 0l0 -0.421875l0.828125 -0.359375l0.359375 -1.21875l0.5 0l0 1.328125l1.65625 0l0 0.671875l-1.65625 0l0 3.359375q0 0.515625 0.234375 0.796875q0.25 0.265625 0.671875 0.265625zm5.824463 0.609375l0 -3.6875q0 -0.703125 -0.3125 -1.046875q-0.3125 -0.34375 -1.0 -0.34375q-0.890625 0 -1.3125 0.5q-0.40625 0.484375 -0.40625 1.59375l0 2.984375l-0.859375 0l0 -8.09375l0.859375 0l0 2.453125q0 0.4375 -0.046875 0.734375l0.0625 0q0.25 -0.421875 0.71875 -0.65625q0.46875 -0.234375 1.078125 -0.234375q1.046875 0 1.5625 0.5q0.53125 0.5 0.53125 1.578125l0 3.71875l-0.875 0zm7.5717163 -2.859375q0 1.390625 -0.703125 2.1875q-0.703125 0.78125 -1.953125 0.78125q-0.75 0 -1.34375 -0.359375q-0.59375 -0.359375 -0.921875 -1.03125q-0.328125 -0.671875 -0.328125 -1.578125q0 -1.390625 0.703125 -2.171875q0.703125 -0.78125 1.9375 -0.78125q1.1875 0 1.890625 0.796875q0.71875 0.796875 0.71875 2.15625zm-4.34375 0q0 1.09375 0.4375 1.671875q0.4375 0.5625 1.28125 0.5625q0.84375 0 1.28125 -0.5625q0.4375 -0.578125 0.4375 -1.671875q0 -1.078125 -0.4375 -1.640625q-0.4375 -0.578125 -1.296875 -0.578125q-0.84375 0 -1.28125 0.5625q-0.421875 0.5625 -0.421875 1.65625zm8.452057 -2.953125q0.375 0 0.6875 0.0625l-0.125 0.8125q-0.359375 -0.078125 -0.625 -0.078125q-0.6875 0 -1.1875 0.5625q-0.484375 0.5625 -0.484375 1.390625l0 3.0625l-0.859375 0l0 -5.703125l0.703125 0l0.109375 1.0625l0.03125 0q0.328125 -0.5625 0.765625 -0.859375q0.453125 -0.3125 0.984375 -0.3125zm2.6155396 5.8125l-0.859375 0l0 -5.703125l0.859375 0l0 5.703125zm-0.9375 -7.25q0 -0.296875 0.140625 -0.4375q0.15625 -0.140625 0.375 -0.140625q0.203125 0 0.34375 0.140625q0.15625 0.140625 0.15625 0.4375q0 0.296875 -0.15625 0.4375q-0.140625 0.140625 -0.34375 0.140625q-0.21875 0 -0.375 -0.140625q-0.140625 -0.140625 -0.140625 -0.4375zm6.414032 7.25l-4.140625 0l0 -0.59375l3.109375 -4.4375l-2.90625 0l0 -0.671875l3.859375 0l0 0.671875l-3.0625 4.359375l3.140625 0l0 0.671875zm4.8440857 0l-0.171875 -0.8125l-0.046875 0q-0.421875 0.53125 -0.84375 0.734375q-0.421875 0.1875 -1.0625 0.1875q-0.84375 0 -1.328125 -0.4375q-0.484375 -0.4375 -0.484375 -1.25q0 -1.71875 2.765625 -1.8125l0.96875 -0.03125l0 -0.34375q0 -0.671875 -0.296875 -0.984375q-0.28125 -0.328125 -0.921875 -0.328125q-0.703125 0 -1.609375 0.4375l-0.265625 -0.671875q0.421875 -0.21875 0.921875 -0.34375q0.515625 -0.140625 1.015625 -0.140625q1.015625 0 1.5 0.453125q0.5 0.453125 0.5 1.453125l0 3.890625l-0.640625 0zm-1.953125 -0.609375q0.8125 0 1.265625 -0.4375q0.46875 -0.453125 0.46875 -1.25l0 -0.5l-0.875 0.03125q-1.015625 0.03125 -1.484375 0.3125q-0.453125 0.28125 -0.453125 0.890625q0 0.46875 0.28125 0.71875q0.296875 0.234375 0.796875 0.234375zm6.207733 0q0.234375 0 0.4375 -0.03125q0.21875 -0.03125 0.34375 -0.078125l0 0.671875q-0.140625 0.0625 -0.421875 0.109375q-0.265625 0.046875 -0.46875 0.046875q-1.65625 0 -1.65625 -1.75l0 -3.390625l-0.828125 0l0 -0.421875l0.828125 -0.359375l0.359375 -1.21875l0.5 0l0 1.328125l1.65625 0l0 0.671875l-1.65625 0l0 3.359375q0 0.515625 0.234375 0.796875q0.25 0.265625 0.671875 0.265625zm2.793213 0.609375l-0.859375 0l0 -5.703125l0.859375 0l0 5.703125zm-0.9375 -7.25q0 -0.296875 0.140625 -0.4375q0.15625 -0.140625 0.375 -0.140625q0.203125 0 0.34375 0.140625q0.15625 0.140625 0.15625 0.4375q0 0.296875 -0.15625 0.4375q-0.140625 0.140625 -0.34375 0.140625q-0.21875 0 -0.375 -0.140625q-0.140625 -0.140625 -0.140625 -0.4375zm7.695282 4.390625q0 1.390625 -0.703125 2.1875q-0.703125 0.78125 -1.953125 0.78125q-0.75 0 -1.34375 -0.359375q-0.59375 -0.359375 -0.921875 -1.03125q-0.328125 -0.671875 -0.328125 -1.578125q0 -1.390625 0.703125 -2.171875q0.703125 -0.78125 1.9375 -0.78125q1.1875 0 1.890625 0.796875q0.71875 0.796875 0.71875 2.15625zm-4.34375 0q0 1.09375 0.4375 1.671875q0.4375 0.5625 1.28125 0.5625q0.84375 0 1.28125 -0.5625q0.4375 -0.578125 0.4375 -1.671875q0 -1.078125 -0.4375 -1.640625q-0.4375 -0.578125 -1.296875 -0.578125q-0.84375 0 -1.28125 0.5625q-0.421875 0.5625 -0.421875 1.65625zm9.748901 2.859375l0 -3.6875q0 -0.703125 -0.3125 -1.046875q-0.3125 -0.34375 -1.0 -0.34375q-0.890625 0 -1.3125 0.484375q-0.40625 0.484375 -0.40625 1.609375l0 2.984375l-0.859375 0l0 -5.703125l0.703125 0l0.140625 0.78125l0.03125 0q0.265625 -0.421875 0.734375 -0.65625q0.484375 -0.234375 1.078125 -0.234375q1.03125 0 1.546875 0.5q0.53125 0.5 0.53125 1.59375l0 3.71875l-0.875 0z" fill-rule="nonzero"/><path fill="#159957" d="m201.96194 26.530184l183.71652 0l0 98.92914l-183.71652 0z" fill-rule="evenodd"/><path fill="#ffffff" d="m217.69632 45.965805l5.28125 0l0 6.90625q-1.28125 0.421875 -2.421875 0.59375q-1.125 0.171875 -2.3125 0.171875q-3.015625 0 -4.609375 -1.765625q-1.59375 -1.78125 -1.59375 -5.09375q0 -3.234375 1.84375 -5.03125q1.84375 -1.8125 5.125 -1.8125q2.046875 0 3.953125 0.828125l-0.9375 2.25q-1.46875 -0.71875 -3.03125 -0.71875q-1.84375 0 -2.953125 1.234375q-1.09375 1.21875 -1.09375 3.296875q0 2.171875 0.890625 3.3125q0.890625 1.140625 2.578125 1.140625q0.890625 0 1.796875 -0.171875l0 -2.78125l-2.515625 0l0 -2.359375zm11.009384 7.484375l-2.78125 0l0 -14.171875l2.78125 0l0 14.171875zm5.1309357 -5.109375q0 1.515625 0.5 2.296875q0.5 0.765625 1.609375 0.765625q1.109375 0 1.59375 -0.765625q0.5 -0.78125 0.5 -2.296875q0 -1.515625 -0.5 -2.265625q-0.484375 -0.765625 -1.609375 -0.765625q-1.109375 0 -1.609375 0.765625q-0.484375 0.75 -0.484375 2.265625zm7.046875 0q0 2.484375 -1.3125 3.890625q-1.3125 1.40625 -3.65625 1.40625q-1.46875 0 -2.59375 -0.640625q-1.109375 -0.65625 -1.71875 -1.84375q-0.59375 -1.203125 -0.59375 -2.8125q0 -2.5 1.296875 -3.875q1.296875 -1.390625 3.65625 -1.390625q1.46875 0 2.59375 0.640625q1.125 0.640625 1.71875 1.828125q0.609375 1.1875 0.609375 2.796875zm10.660217 5.109375l-0.78125 -3.5625l-1.0625 -4.5l-0.0625 0l-1.859375 8.0625l-2.984375 0l-2.890625 -10.1875l2.765625 0l1.171875 4.515625q0.28125 1.203125 0.578125 3.34375l0.046875 0q0.046875 -0.703125 0.328125 -2.203125l0.140625 -0.765625l1.265625 -4.890625l3.046875 0l1.203125 4.890625q0.03125 0.203125 0.109375 0.59375q0.078125 0.390625 0.140625 0.828125q0.078125 0.4375 0.140625 0.859375q0.0625 0.421875 0.078125 0.6875l0.046875 0q0.078125 -0.65625 0.28125 -1.796875q0.21875 -1.15625 0.3125 -1.546875l1.21875 -4.515625l2.71875 0l-2.921875 10.1875l-3.03125 0zm7.484558 -12.8125q0 -1.359375 1.5 -1.359375q1.515625 0 1.515625 1.359375q0 0.640625 -0.375 1.0q-0.375 0.359375 -1.140625 0.359375q-1.5 0 -1.5 -1.359375zm2.890625 12.8125l-2.78125 0l0 -10.1875l2.78125 0l0 10.1875zm12.318451 0l-2.78125 0l0 -5.953125q0 -1.09375 -0.390625 -1.640625q-0.390625 -0.5625 -1.25 -0.5625q-1.15625 0 -1.6875 0.78125q-0.515625 0.78125 -0.515625 2.578125l0 4.796875l-2.78125 0l0 -10.1875l2.125 0l0.375 1.3125l0.15625 0q0.46875 -0.75 1.28125 -1.125q0.8125 -0.375 1.84375 -0.375q1.78125 0 2.703125 0.96875q0.921875 0.953125 0.921875 2.765625l0 6.640625zm11.730133 -10.1875l0 1.421875l-1.59375 0.40625q0.4375 0.6875 0.4375 1.53125q0 1.640625 -1.15625 2.5625q-1.140625 0.90625 -3.171875 0.90625l-0.5 -0.03125l-0.40625 -0.046875q-0.4375 0.328125 -0.4375 0.734375q0 0.59375 1.53125 0.59375l1.734375 0q1.671875 0 2.546875 0.71875q0.890625 0.71875 0.890625 2.125q0 1.78125 -1.5 2.765625q-1.484375 0.984375 -4.265625 0.984375q-2.125 0 -3.265625 -0.75q-1.125 -0.734375 -1.125 -2.078125q0 -0.921875 0.578125 -1.546875q0.578125 -0.609375 1.6875 -0.875q-0.421875 -0.1875 -0.75 -0.59375q-0.3125 -0.421875 -0.3125 -0.875q0 -0.59375 0.328125 -0.96875q0.34375 -0.390625 0.984375 -0.765625q-0.796875 -0.34375 -1.28125 -1.109375q-0.46875 -0.765625 -0.46875 -1.8125q0 -1.65625 1.078125 -2.5625q1.09375 -0.921875 3.109375 -0.921875q0.421875 0 1.015625 0.078125q0.59375 0.078125 0.75 0.109375l3.5625 0zm-7.875 11.625q0 0.578125 0.546875 0.90625q0.5625 0.328125 1.5625 0.328125q1.484375 0 2.328125 -0.421875q0.859375 -0.40625 0.859375 -1.109375q0 -0.578125 -0.515625 -0.796875q-0.5 -0.21875 -1.546875 -0.21875l-1.4375 0q-0.765625 0 -1.28125 0.359375q-0.515625 0.359375 -0.515625 0.953125zm1.015625 -8.28125q0 0.828125 0.375 1.3125q0.390625 0.46875 1.15625 0.46875q0.78125 0 1.140625 -0.46875q0.375 -0.484375 0.375 -1.3125q0 -1.84375 -1.515625 -1.84375q-1.53125 0 -1.53125 1.84375zm13.58905 -6.46875l4.15625 0q2.828125 0 4.109375 0.8125q1.28125 0.796875 1.28125 2.546875q0 1.203125 -0.5625 1.96875q-0.5625 0.765625 -1.484375 0.921875l0 0.078125q1.265625 0.28125 1.8125 1.0625q0.5625 0.78125 0.5625 2.0625q0 1.8125 -1.3125 2.84375q-1.3125 1.015625 -3.578125 1.015625l-4.984375 0l0 -13.3125zm2.828125 5.265625l1.640625 0q1.140625 0 1.65625 -0.34375q0.515625 -0.359375 0.515625 -1.1875q0 -0.765625 -0.5625 -1.09375q-0.546875 -0.328125 -1.765625 -0.328125l-1.484375 0l0 2.953125zm0 2.25l0 3.46875l1.84375 0q1.15625 0 1.71875 -0.4375q0.5625 -0.453125 0.5625 -1.375q0 -1.65625 -2.375 -1.65625l-1.75 0zm13.706543 -2.609375q-0.875 0 -1.375 0.5625q-0.5 0.5625 -0.578125 1.59375l3.890625 0q-0.015625 -1.03125 -0.53125 -1.59375q-0.515625 -0.5625 -1.40625 -0.5625zm0.390625 8.59375q-2.453125 0 -3.84375 -1.359375q-1.375 -1.359375 -1.375 -3.84375q0 -2.5625 1.265625 -3.953125q1.28125 -1.40625 3.546875 -1.40625q2.15625 0 3.359375 1.234375q1.203125 1.21875 1.203125 3.390625l0 1.34375l-6.5625 0q0.046875 1.1875 0.703125 1.859375q0.65625 0.65625 1.828125 0.65625q0.921875 0 1.734375 -0.1875q0.828125 -0.1875 1.71875 -0.609375l0 2.15625q-0.71875 0.359375 -1.546875 0.53125q-0.828125 0.1875 -2.03125 0.1875zm12.881866 -0.1875l-0.53125 -1.390625l-0.078125 0q-0.703125 0.890625 -1.453125 1.234375q-0.734375 0.34375 -1.921875 0.34375q-1.46875 0 -2.3125 -0.84375q-0.84375 -0.84375 -0.84375 -2.390625q0 -1.625 1.125 -2.390625q1.140625 -0.765625 3.4375 -0.84375l1.765625 -0.0625l0 -0.4375q0 -1.546875 -1.59375 -1.546875q-1.21875 0 -2.859375 0.734375l-0.921875 -1.875q1.75 -0.921875 3.890625 -0.921875q2.046875 0 3.140625 0.890625q1.09375 0.890625 1.09375 2.71875l0 6.78125l-1.9375 0zm-0.8125 -4.71875l-1.078125 0.03125q-1.21875 0.046875 -1.8125 0.453125q-0.578125 0.390625 -0.578125 1.203125q0 1.1875 1.34375 1.1875q0.96875 0 1.546875 -0.546875q0.578125 -0.5625 0.578125 -1.484375l0 -0.84375zm11.299713 -5.65625q0.5625 0 0.9375 0.078125l-0.203125 2.609375q-0.34375 -0.09375 -0.828125 -0.09375q-1.328125 0 -2.078125 0.6875q-0.734375 0.6875 -0.734375 1.90625l0 5.1875l-2.78125 0l0 -10.1875l2.109375 0l0.40625 1.71875l0.140625 0q0.46875 -0.859375 1.265625 -1.375q0.8125 -0.53125 1.765625 -0.53125z" fill-rule="nonzero"/><path fill="#d9d9d9" d="m214.14944 67.879555q-1.234375 0 -1.921875 -0.765625q-0.671875 -0.765625 -0.671875 -2.15625q0 -1.4375 0.6875 -2.21875q0.703125 -0.78125 1.96875 -0.78125q0.40625 0 0.8125 0.09375q0.421875 0.09375 0.65625 0.203125l-0.265625 0.734375q-0.28125 -0.109375 -0.625 -0.1875q-0.34375 -0.078125 -0.59375 -0.078125q-1.734375 0 -1.734375 2.21875q0 1.046875 0.421875 1.609375q0.421875 0.5625 1.25 0.5625q0.71875 0 1.46875 -0.296875l0 0.765625q-0.578125 0.296875 -1.453125 0.296875zm7.729416 -2.96875q0 1.390625 -0.703125 2.1875q-0.703125 0.78125 -1.953125 0.78125q-0.75 0 -1.34375 -0.359375q-0.59375 -0.359375 -0.921875 -1.03125q-0.328125 -0.671875 -0.328125 -1.578125q0 -1.390625 0.703125 -2.171875q0.703125 -0.78125 1.9375 -0.78125q1.1875 0 1.890625 0.796875q0.71875 0.796875 0.71875 2.15625zm-4.34375 0q0 1.09375 0.4375 1.671875q0.4375 0.5625 1.28125 0.5625q0.84375 0 1.28125 -0.5625q0.4375 -0.578125 0.4375 -1.671875q0 -1.078125 -0.4375 -1.640625q-0.4375 -0.578125 -1.296875 -0.578125q-0.84375 0 -1.28125 0.5625q-0.421875 0.5625 -0.421875 1.65625zm9.748917 2.859375l0 -3.6875q0 -0.703125 -0.3125 -1.046875q-0.3125 -0.34375 -1.0 -0.34375q-0.890625 0 -1.3125 0.5q-0.40625 0.484375 -0.40625 1.59375l0 2.984375l-0.859375 0l0 -8.09375l0.859375 0l0 2.453125q0 0.4375 -0.046875 0.734375l0.0625 0q0.25 -0.421875 0.71875 -0.65625q0.46875 -0.234375 1.078125 -0.234375q1.046875 0 1.5625 0.5q0.53125 0.5 0.53125 1.578125l0 3.71875l-0.875 0zm7.5717316 -2.859375q0 1.390625 -0.703125 2.1875q-0.703125 0.78125 -1.953125 0.78125q-0.75 0 -1.34375 -0.359375q-0.59375 -0.359375 -0.921875 -1.03125q-0.328125 -0.671875 -0.328125 -1.578125q0 -1.390625 0.703125 -2.171875q0.703125 -0.78125 1.9375 -0.78125q1.1875 0 1.890625 0.796875q0.71875 0.796875 0.71875 2.15625zm-4.34375 0q0 1.09375 0.4375 1.671875q0.4375 0.5625 1.28125 0.5625q0.84375 0 1.28125 -0.5625q0.4375 -0.578125 0.4375 -1.671875q0 -1.078125 -0.4375 -1.640625q-0.4375 -0.578125 -1.296875 -0.578125q-0.84375 0 -1.28125 0.5625q-0.421875 0.5625 -0.421875 1.65625zm8.452042 -2.953125q0.375 0 0.6875 0.0625l-0.125 0.8125q-0.359375 -0.078125 -0.625 -0.078125q-0.6875 0 -1.1875 0.5625q-0.484375 0.5625 -0.484375 1.390625l0 3.0625l-0.859375 0l0 -5.703125l0.703125 0l0.109375 1.0625l0.03125 0q0.328125 -0.5625 0.765625 -0.859375q0.453125 -0.3125 0.984375 -0.3125zm3.5842896 5.203125q0.234375 0 0.4375 -0.03125q0.21875 -0.03125 0.34375 -0.078125l0 0.671875q-0.140625 0.0625 -0.421875 0.109375q-0.265625 0.046875 -0.46875 0.046875q-1.65625 0 -1.65625 -1.75l0 -3.390625l-0.828125 0l0 -0.421875l0.828125 -0.359375l0.359375 -1.21875l0.5 0l0 1.328125l1.65625 0l0 0.671875l-1.65625 0l0 3.359375q0 0.515625 0.234375 0.796875q0.25 0.265625 0.671875 0.265625zm8.373825 -0.953125q0 0.796875 -0.59375 1.234375q-0.59375 0.4375 -1.65625 0.4375q-1.140625 0 -1.78125 -0.359375l0 -0.8125q0.421875 0.21875 0.890625 0.34375q0.46875 0.109375 0.90625 0.109375q0.671875 0 1.03125 -0.21875q0.375 -0.21875 0.375 -0.65625q0 -0.328125 -0.296875 -0.5625q-0.28125 -0.25 -1.125 -0.5625q-0.796875 -0.296875 -1.140625 -0.515625q-0.328125 -0.21875 -0.5 -0.5q-0.15625 -0.28125 -0.15625 -0.671875q0 -0.703125 0.5625 -1.109375q0.578125 -0.40625 1.5625 -0.40625q0.921875 0 1.796875 0.375l-0.296875 0.703125q-0.859375 -0.34375 -1.5625 -0.34375q-0.609375 0 -0.921875 0.1875q-0.3125 0.1875 -0.3125 0.53125q0 0.234375 0.109375 0.390625q0.125 0.15625 0.375 0.3125q0.265625 0.140625 1.0 0.421875q1.015625 0.359375 1.375 0.734375q0.359375 0.375 0.359375 0.9375zm3.8179474 1.671875q-1.265625 0 -2.0 -0.765625q-0.734375 -0.78125 -0.734375 -2.140625q0 -1.390625 0.671875 -2.203125q0.6875 -0.8125 1.828125 -0.8125q1.078125 0 1.703125 0.71875q0.625 0.703125 0.625 1.859375l0 0.546875l-3.921875 0q0.015625 1.0 0.5 1.515625q0.484375 0.515625 1.359375 0.515625q0.921875 0 1.8125 -0.375l0 0.765625q-0.453125 0.203125 -0.859375 0.28125q-0.40625 0.09375 -0.984375 0.09375zm-0.234375 -5.1875q-0.6875 0 -1.09375 0.453125q-0.40625 0.4375 -0.484375 1.234375l2.984375 0q0 -0.828125 -0.375 -1.25q-0.359375 -0.4375 -1.03125 -0.4375zm4.6660156 5.078125l-0.859375 0l0 -8.09375l0.859375 0l0 8.09375zm4.242157 0.109375q-1.265625 0 -2.0 -0.765625q-0.734375 -0.78125 -0.734375 -2.140625q0 -1.390625 0.671875 -2.203125q0.6875 -0.8125 1.828125 -0.8125q1.078125 0 1.703125 0.71875q0.625 0.703125 0.625 1.859375l0 0.546875l-3.921875 0q0.015625 1.0 0.5 1.515625q0.484375 0.515625 1.359375 0.515625q0.921875 0 1.8125 -0.375l0 0.765625q-0.453125 0.203125 -0.859375 0.28125q-0.40625 0.09375 -0.984375 0.09375zm-0.234375 -5.1875q-0.6875 0 -1.09375 0.453125q-0.40625 0.4375 -0.484375 1.234375l2.984375 0q0 -0.828125 -0.375 -1.25q-0.359375 -0.4375 -1.03125 -0.4375zm6.072296 5.1875q-1.234375 0 -1.921875 -0.765625q-0.671875 -0.765625 -0.671875 -2.15625q0 -1.4375 0.6875 -2.21875q0.703125 -0.78125 1.96875 -0.78125q0.40625 0 0.8125 0.09375q0.421875 0.09375 0.65625 0.203125l-0.265625 0.734375q-0.28125 -0.109375 -0.625 -0.1875q-0.34375 -0.078125 -0.59375 -0.078125q-1.734375 0 -1.734375 2.21875q0 1.046875 0.421875 1.609375q0.421875 0.5625 1.25 0.5625q0.71875 0 1.46875 -0.296875l0 0.765625q-0.578125 0.296875 -1.453125 0.296875zm4.6356506 -0.71875q0.234375 0 0.4375 -0.03125q0.21875 -0.03125 0.34375 -0.078125l0 0.671875q-0.140625 0.0625 -0.421875 0.109375q-0.265625 0.046875 -0.46875 0.046875q-1.65625 0 -1.65625 -1.75l0 -3.390625l-0.828125 0l0 -0.421875l0.828125 -0.359375l0.359375 -1.21875l0.5 0l0 1.328125l1.65625 0l0 0.671875l-1.65625 0l0 3.359375q0 0.515625 0.234375 0.796875q0.25 0.265625 0.671875 0.265625zm6.855713 -2.25q0 1.390625 -0.703125 2.1875q-0.703125 0.78125 -1.953125 0.78125q-0.75 0 -1.34375 -0.359375q-0.59375 -0.359375 -0.921875 -1.03125q-0.328125 -0.671875 -0.328125 -1.578125q0 -1.390625 0.703125 -2.171875q0.703125 -0.78125 1.9375 -0.78125q1.1875 0 1.890625 0.796875q0.71875 0.796875 0.71875 2.15625zm-4.34375 0q0 1.09375 0.4375 1.671875q0.4375 0.5625 1.28125 0.5625q0.84375 0 1.28125 -0.5625q0.4375 -0.578125 0.4375 -1.671875q0 -1.078125 -0.4375 -1.640625q-0.4375 -0.578125 -1.296875 -0.578125q-0.84375 0 -1.28125 0.5625q-0.421875 0.5625 -0.421875 1.65625zm8.452026 -2.953125q0.375 0 0.6875 0.0625l-0.125 0.8125q-0.359375 -0.078125 -0.625 -0.078125q-0.6875 0 -1.1875 0.5625q-0.484375 0.5625 -0.484375 1.390625l0 3.0625l-0.859375 0l0 -5.703125l0.703125 0l0.109375 1.0625l0.03125 0q0.328125 -0.5625 0.765625 -0.859375q0.453125 -0.3125 0.984375 -0.3125zm5.336792 0.109375l0 3.703125q0 0.6875 0.3125 1.03125q0.3125 0.34375 0.984375 0.34375q0.90625 0 1.3125 -0.484375q0.421875 -0.484375 0.421875 -1.59375l0 -3.0l0.859375 0l0 5.703125l-0.71875 0l-0.125 -0.765625l-0.046875 0q-0.265625 0.421875 -0.734375 0.65625q-0.46875 0.21875 -1.078125 0.21875q-1.03125 0 -1.546875 -0.5q-0.515625 -0.5 -0.515625 -1.578125l0 -3.734375l0.875 0zm9.399872 4.140625q0 0.796875 -0.59375 1.234375q-0.59375 0.4375 -1.65625 0.4375q-1.140625 0 -1.78125 -0.359375l0 -0.8125q0.421875 0.21875 0.890625 0.34375q0.46875 0.109375 0.90625 0.109375q0.671875 0 1.03125 -0.21875q0.375 -0.21875 0.375 -0.65625q0 -0.328125 -0.296875 -0.5625q-0.28125 -0.25 -1.125 -0.5625q-0.796875 -0.296875 -1.140625 -0.515625q-0.328125 -0.21875 -0.5 -0.5q-0.15625 -0.28125 -0.15625 -0.671875q0 -0.703125 0.5625 -1.109375q0.578125 -0.40625 1.5625 -0.40625q0.921875 0 1.796875 0.375l-0.296875 0.703125q-0.859375 -0.34375 -1.5625 -0.34375q-0.609375 0 -0.921875 0.1875q-0.3125 0.1875 -0.3125 0.53125q0 0.234375 0.109375 0.390625q0.125 0.15625 0.375 0.3125q0.265625 0.140625 1.0 0.421875q1.015625 0.359375 1.375 0.734375q0.359375 0.375 0.359375 0.9375zm3.8179321 1.671875q-1.265625 0 -2.0 -0.765625q-0.734375 -0.78125 -0.734375 -2.140625q0 -1.390625 0.671875 -2.203125q0.6875 -0.8125 1.828125 -0.8125q1.078125 0 1.703125 0.71875q0.625 0.703125 0.625 1.859375l0 0.546875l-3.921875 0q0.015625 1.0 0.5 1.515625q0.484375 0.515625 1.359375 0.515625q0.921875 0 1.8125 -0.375l0 0.765625q-0.453125 0.203125 -0.859375 0.28125q-0.40625 0.09375 -0.984375 0.09375zm-0.234375 -5.1875q-0.6875 0 -1.09375 0.453125q-0.40625 0.4375 -0.484375 1.234375l2.984375 0q0 -0.828125 -0.375 -1.25q-0.359375 -0.4375 -1.03125 -0.4375zm6.400421 -0.734375q0.375 0 0.6875 0.0625l-0.125 0.8125q-0.359375 -0.078125 -0.625 -0.078125q-0.6875 0 -1.1875 0.5625q-0.484375 0.5625 -0.484375 1.390625l0 3.0625l-0.859375 0l0 -5.703125l0.703125 0l0.109375 1.0625l0.03125 0q0.328125 -0.5625 0.765625 -0.859375q0.453125 -0.3125 0.984375 -0.3125zm5.383667 5.8125l-0.859375 0l0 -5.703125l0.859375 0l0 5.703125zm-0.9375 -7.25q0 -0.296875 0.140625 -0.4375q0.15625 -0.140625 0.375 -0.140625q0.203125 0 0.34375 0.140625q0.15625 0.140625 0.15625 0.4375q0 0.296875 -0.15625 0.4375q-0.140625 0.140625 -0.34375 0.140625q-0.21875 0 -0.375 -0.140625q-0.140625 -0.140625 -0.140625 -0.4375zm6.664032 7.25l0 -3.6875q0 -0.703125 -0.3125 -1.046875q-0.3125 -0.34375 -1.0 -0.34375q-0.890625 0 -1.3125 0.484375q-0.40625 0.484375 -0.40625 1.609375l0 2.984375l-0.859375 0l0 -5.703125l0.703125 0l0.140625 0.78125l0.03125 0q0.265625 -0.421875 0.734375 -0.65625q0.484375 -0.234375 1.078125 -0.234375q1.03125 0 1.546875 0.5q0.53125 0.5 0.53125 1.59375l0 3.71875l-0.875 0zm4.4779663 -0.609375q0.234375 0 0.4375 -0.03125q0.21875 -0.03125 0.34375 -0.078125l0 0.671875q-0.140625 0.0625 -0.421875 0.109375q-0.265625 0.046875 -0.46875 0.046875q-1.65625 0 -1.65625 -1.75l0 -3.390625l-0.828125 0l0 -0.421875l0.828125 -0.359375l0.359375 -1.21875l0.5 0l0 1.328125l1.65625 0l0 0.671875l-1.65625 0l0 3.359375q0 0.515625 0.234375 0.796875q0.25 0.265625 0.671875 0.265625zm4.340088 0.71875q-1.265625 0 -2.0 -0.765625q-0.734375 -0.78125 -0.734375 -2.140625q0 -1.390625 0.671875 -2.203125q0.6875 -0.8125 1.828125 -0.8125q1.078125 0 1.703125 0.71875q0.625 0.703125 0.625 1.859375l0 0.546875l-3.921875 0q0.015625 1.0 0.5 1.515625q0.484375 0.515625 1.359375 0.515625q0.921875 0 1.8125 -0.375l0 0.765625q-0.453125 0.203125 -0.859375 0.28125q-0.40625 0.09375 -0.984375 0.09375zm-0.234375 -5.1875q-0.6875 0 -1.09375 0.453125q-0.40625 0.4375 -0.484375 1.234375l2.984375 0q0 -0.828125 -0.375 -1.25q-0.359375 -0.4375 -1.03125 -0.4375zm6.4003906 -0.734375q0.375 0 0.6875 0.0625l-0.125 0.8125q-0.359375 -0.078125 -0.625 -0.078125q-0.6875 0 -1.1875 0.5625q-0.484375 0.5625 -0.484375 1.390625l0 3.0625l-0.859375 0l0 -5.703125l0.703125 0l0.109375 1.0625l0.03125 0q0.328125 -0.5625 0.765625 -0.859375q0.453125 -0.3125 0.984375 -0.3125zm4.3186646 0.78125l-1.453125 0l0 5.03125l-0.859375 0l0 -5.03125l-1.015625 0l0 -0.390625l1.015625 -0.3125l0 -0.3125q0 -2.109375 1.828125 -2.109375q0.453125 0 1.0625 0.1875l-0.21875 0.6875q-0.5 -0.15625 -0.859375 -0.15625q-0.484375 0 -0.71875 0.328125q-0.234375 0.3125 -0.234375 1.03125l0 0.375l1.453125 0l0 0.671875zm4.5485535 5.03125l-0.171875 -0.8125l-0.046875 0q-0.421875 0.53125 -0.84375 0.734375q-0.421875 0.1875 -1.0625 0.1875q-0.84375 0 -1.328125 -0.4375q-0.484375 -0.4375 -0.484375 -1.25q0 -1.71875 2.765625 -1.8125l0.96875 -0.03125l0 -0.34375q0 -0.671875 -0.296875 -0.984375q-0.28125 -0.328125 -0.921875 -0.328125q-0.703125 0 -1.609375 0.4375l-0.265625 -0.671875q0.421875 -0.21875 0.921875 -0.34375q0.515625 -0.140625 1.015625 -0.140625q1.015625 0 1.5 0.453125q0.5 0.453125 0.5 1.453125l0 3.890625l-0.640625 0zm-1.953125 -0.609375q0.8125 0 1.265625 -0.4375q0.46875 -0.453125 0.46875 -1.25l0 -0.5l-0.875 0.03125q-1.015625 0.03125 -1.484375 0.3125q-0.453125 0.28125 -0.453125 0.890625q0 0.46875 0.28125 0.71875q0.296875 0.234375 0.796875 0.234375zm6.6452637 0.71875q-1.234375 0 -1.921875 -0.765625q-0.671875 -0.765625 -0.671875 -2.15625q0 -1.4375 0.6875 -2.21875q0.703125 -0.78125 1.96875 -0.78125q0.40625 0 0.8125 0.09375q0.421875 0.09375 0.65625 0.203125l-0.265625 0.734375q-0.28125 -0.109375 -0.625 -0.1875q-0.34375 -0.078125 -0.59375 -0.078125q-1.734375 0 -1.734375 2.21875q0 1.046875 0.421875 1.609375q0.421875 0.5625 1.25 0.5625q0.71875 0 1.46875 -0.296875l0 0.765625q-0.578125 0.296875 -1.453125 0.296875zm5.2137756 0q-1.265625 0 -2.0 -0.765625q-0.734375 -0.78125 -0.734375 -2.140625q0 -1.390625 0.671875 -2.203125q0.6875 -0.8125 1.828125 -0.8125q1.078125 0 1.703125 0.71875q0.625 0.703125 0.625 1.859375l0 0.546875l-3.921875 0q0.015625 1.0 0.5 1.515625q0.484375 0.515625 1.359375 0.515625q0.921875 0 1.8125 -0.375l0 0.765625q-0.453125 0.203125 -0.859375 0.28125q-0.40625 0.09375 -0.984375 0.09375zm-0.234375 -5.1875q-0.6875 0 -1.09375 0.453125q-0.40625 0.4375 -0.484375 1.234375l2.984375 0q0 -0.828125 -0.375 -1.25q-0.359375 -0.4375 -1.03125 -0.4375z" fill-rule="nonzero"/><path fill="#159957" d="m27.807087 162.48819l183.71654 0l0 98.92914l-183.71654 0z" fill-rule="evenodd"/><path fill="#ffffff" d="m42.557087 187.37694q0.734375 0 1.75 -0.3125l0 2.0625q-1.046875 0.46875 -2.546875 0.46875q-1.671875 0 -2.4375 -0.84375q-0.75 -0.84375 -0.75 -2.53125l0 -4.90625l-1.34375 0l0 -1.1875l1.53125 -0.921875l0.8125 -2.15625l1.765625 0l0 2.171875l2.859375 0l0 2.09375l-2.859375 0l0 4.90625q0 0.59375 0.328125 0.875q0.34375 0.28125 0.890625 0.28125zm9.488968 -8.34375q0.5625 0 0.9375 0.078125l-0.203125 2.609375q-0.34375 -0.09375 -0.828125 -0.09375q-1.328125 0 -2.078125 0.6875q-0.734375 0.6875 -0.734375 1.90625l0 5.1875l-2.78125 0l0 -10.1875l2.109375 0l0.40625 1.71875l0.140625 0q0.46875 -0.859375 1.265625 -1.375q0.8125 -0.53125 1.765625 -0.53125zm9.253082 10.375l-0.53125 -1.390625l-0.078125 0q-0.703125 0.890625 -1.453125 1.234375q-0.734375 0.34375 -1.921875 0.34375q-1.46875 0 -2.3125 -0.84375q-0.84375 -0.84375 -0.84375 -2.390625q0 -1.625 1.125 -2.390625q1.140625 -0.765625 3.4375 -0.84375l1.765625 -0.0625l0 -0.4375q0 -1.546875 -1.59375 -1.546875q-1.21875 0 -2.859375 0.734375l-0.921875 -1.875q1.75 -0.921875 3.890625 -0.921875q2.046875 0 3.140625 0.890625q1.09375 0.890625 1.09375 2.71875l0 6.78125l-1.9375 0zm-0.8125 -4.71875l-1.078125 0.03125q-1.21875 0.046875 -1.8125 0.453125q-0.578125 0.390625 -0.578125 1.203125q0 1.1875 1.34375 1.1875q0.96875 0 1.546875 -0.546875q0.578125 -0.5625 0.578125 -1.484375l0 -0.84375zm15.018444 4.71875l-2.78125 0l0 -5.953125q0 -1.09375 -0.390625 -1.640625q-0.390625 -0.5625 -1.25 -0.5625q-1.15625 0 -1.6875 0.78125q-0.515625 0.78125 -0.515625 2.578125l0 4.796875l-2.78125 0l0 -10.1875l2.125 0l0.375 1.3125l0.15625 0q0.46875 -0.75 1.28125 -1.125q0.8125 -0.375 1.84375 -0.375q1.78125 0 2.703125 0.96875q0.921875 0.953125 0.921875 2.765625l0 6.640625zm9.964508 -3.03125q0 1.578125 -1.09375 2.40625q-1.078125 0.8125 -3.25 0.8125q-1.109375 0 -1.890625 -0.15625q-0.78125 -0.15625 -1.46875 -0.4375l0 -2.296875q0.765625 0.359375 1.734375 0.609375q0.984375 0.25 1.71875 0.25q1.515625 0 1.515625 -0.875q0 -0.328125 -0.203125 -0.53125q-0.203125 -0.21875 -0.703125 -0.46875q-0.484375 -0.265625 -1.3125 -0.609375q-1.171875 -0.484375 -1.71875 -0.90625q-0.546875 -0.421875 -0.796875 -0.953125q-0.25 -0.546875 -0.25 -1.34375q0 -1.359375 1.046875 -2.09375q1.046875 -0.75 2.984375 -0.75q1.84375 0 3.578125 0.796875l-0.84375 2.015625q-0.765625 -0.328125 -1.4375 -0.53125q-0.65625 -0.21875 -1.34375 -0.21875q-1.234375 0 -1.234375 0.65625q0 0.375 0.390625 0.65625q0.40625 0.265625 1.75 0.8125q1.1875 0.46875 1.734375 0.890625q0.5625 0.421875 0.828125 0.96875q0.265625 0.546875 0.265625 1.296875zm11.289093 3.03125l-2.78125 0l0 -5.953125q0 -1.09375 -0.375 -1.640625q-0.359375 -0.5625 -1.15625 -0.5625q-1.0625 0 -1.546875 0.78125q-0.484375 0.78125 -0.484375 2.578125l0 4.796875l-2.78125 0l0 -10.1875l2.125 0l0.375 1.3125l0.15625 0q0.40625 -0.703125 1.171875 -1.09375q0.78125 -0.40625 1.78125 -0.40625q2.296875 0 3.109375 1.5l0.234375 0q0.421875 -0.71875 1.21875 -1.109375q0.796875 -0.390625 1.796875 -0.390625q1.734375 0 2.609375 0.890625q0.890625 0.890625 0.890625 2.84375l0 6.640625l-2.78125 0l0 -5.953125q0 -1.09375 -0.375 -1.640625q-0.359375 -0.5625 -1.15625 -0.5625q-1.015625 0 -1.53125 0.734375q-0.5 0.71875 -0.5 2.3125l0 5.109375zm15.662949 0l-0.53125 -1.390625l-0.078125 0q-0.703125 0.890625 -1.453125 1.234375q-0.734375 0.34375 -1.921875 0.34375q-1.46875 0 -2.3125 -0.84375q-0.84375 -0.84375 -0.84375 -2.390625q0 -1.625 1.125 -2.390625q1.140625 -0.765625 3.4375 -0.84375l1.765625 -0.0625l0 -0.4375q0 -1.546875 -1.59375 -1.546875q-1.21875 0 -2.859375 0.734375l-0.921875 -1.875q1.75 -0.921875 3.890625 -0.921875q2.046875 0 3.140625 0.890625q1.09375 0.890625 1.09375 2.71875l0 6.78125l-1.9375 0zm-0.8125 -4.71875l-1.078125 0.03125q-1.21875 0.046875 -1.8125 0.453125q-0.578125 0.390625 -0.578125 1.203125q0 1.1875 1.34375 1.1875q0.96875 0 1.546875 -0.546875q0.578125 -0.5625 0.578125 -1.484375l0 -0.84375zm11.299698 -5.65625q0.5625 0 0.9375 0.078125l-0.203125 2.609375q-0.34375 -0.09375 -0.828125 -0.09375q-1.328125 0 -2.078125 0.6875q-0.734375 0.6875 -0.734375 1.90625l0 5.1875l-2.78125 0l0 -10.1875l2.109375 0l0.40625 1.71875l0.140625 0q0.46875 -0.859375 1.265625 -1.375q0.8125 -0.53125 1.765625 -0.53125zm7.0812073 8.34375q0.734375 0 1.75 -0.3125l0 2.0625q-1.046875 0.46875 -2.546875 0.46875q-1.671875 0 -2.4375 -0.84375q-0.75 -0.84375 -0.75 -2.53125l0 -4.90625l-1.34375 0l0 -1.1875l1.53125 -0.921875l0.8125 -2.15625l1.765625 0l0 2.171875l2.859375 0l0 2.09375l-2.859375 0l0 4.90625q0 0.59375 0.328125 0.875q0.34375 0.28125 0.890625 0.28125zm2.910843 -1.828125l0 -2.28125l4.890625 0l0 2.28125l-4.890625 0zm11.034409 4.046875q-4.75 0 -4.75 -5.21875q0 -2.609375 1.28125 -3.96875q1.296875 -1.375 3.71875 -1.375q1.765625 0 3.171875 0.6875l-0.828125 2.15625q-0.65625 -0.265625 -1.21875 -0.4375q-0.5625 -0.171875 -1.125 -0.171875q-2.171875 0 -2.171875 3.078125q0 3.0 2.171875 3.0q0.796875 0 1.46875 -0.21875q0.6875 -0.21875 1.375 -0.671875l0 2.375q-0.671875 0.4375 -1.359375 0.59375q-0.6875 0.171875 -1.734375 0.171875zm7.6704254 -5.296875q0 1.515625 0.5 2.296875q0.5 0.765625 1.609375 0.765625q1.109375 0 1.59375 -0.765625q0.5 -0.78125 0.5 -2.296875q0 -1.515625 -0.5 -2.265625q-0.484375 -0.765625 -1.609375 -0.765625q-1.109375 0 -1.609375 0.765625q-0.484375 0.75 -0.484375 2.265625zm7.046875 0q0 2.484375 -1.3125 3.890625q-1.3125 1.40625 -3.65625 1.40625q-1.46875 0 -2.59375 -0.640625q-1.109375 -0.65625 -1.71875 -1.84375q-0.59375 -1.203125 -0.59375 -2.8125q0 -2.5 1.296875 -3.875q1.296875 -1.390625 3.65625 -1.390625q1.46875 0 2.59375 0.640625q1.125 0.640625 1.71875 1.828125q0.609375 1.1875 0.609375 2.796875zm7.9727173 -5.265625q0.5625 0 0.9375 0.078125l-0.203125 2.609375q-0.34375 -0.09375 -0.828125 -0.09375q-1.328125 0 -2.078125 0.6875q-0.734375 0.6875 -0.734375 1.90625l0 5.1875l-2.78125 0l0 -10.1875l2.109375 0l0.40625 1.71875l0.140625 0q0.46875 -0.859375 1.265625 -1.375q0.8125 -0.53125 1.765625 -0.53125zm7.0030823 1.96875q-0.875 0 -1.375 0.5625q-0.5 0.5625 -0.578125 1.59375l3.890625 0q-0.015625 -1.03125 -0.53125 -1.59375q-0.515625 -0.5625 -1.40625 -0.5625zm0.390625 8.59375q-2.453125 0 -3.84375 -1.359375q-1.375 -1.359375 -1.375 -3.84375q0 -2.5625 1.265625 -3.953125q1.28125 -1.40625 3.546875 -1.40625q2.15625 0 3.359375 1.234375q1.203125 1.21875 1.203125 3.390625l0 1.34375l-6.5625 0q0.046875 1.1875 0.703125 1.859375q0.65625 0.65625 1.828125 0.65625q0.921875 0 1.734375 -0.1875q0.828125 -0.1875 1.71875 -0.609375l0 2.15625q-0.71875 0.359375 -1.546875 0.53125q-0.828125 0.1875 -2.03125 0.1875z" fill-rule="nonzero"/><path fill="#d9d9d9" d="m41.603962 202.96255l-0.046875 0q-0.59375 0.875 -1.796875 0.875q-1.109375 0 -1.734375 -0.765625q-0.625 -0.765625 -0.625 -2.171875q0 -1.421875 0.625 -2.203125q0.625 -0.78125 1.734375 -0.78125q1.171875 0 1.78125 0.84375l0.078125 0l-0.046875 -0.40625l-0.015625 -0.40625l0 -2.3125l0.859375 0l0 8.09375l-0.703125 0l-0.109375 -0.765625zm-1.734375 0.140625q0.890625 0 1.28125 -0.46875q0.40625 -0.484375 0.40625 -1.5625l0 -0.171875q0 -1.21875 -0.40625 -1.734375q-0.40625 -0.515625 -1.28125 -0.515625q-0.765625 0 -1.171875 0.59375q-0.390625 0.578125 -0.390625 1.65625q0 1.09375 0.390625 1.65625q0.40625 0.546875 1.171875 0.546875zm7.88945 0.625l-0.171875 -0.8125l-0.046875 0q-0.421875 0.53125 -0.84375 0.734375q-0.421875 0.1875 -1.0625 0.1875q-0.84375 0 -1.328125 -0.4375q-0.484375 -0.4375 -0.484375 -1.25q0 -1.71875 2.765625 -1.8125l0.96875 -0.03125l0 -0.34375q0 -0.671875 -0.296875 -0.984375q-0.28125 -0.328125 -0.921875 -0.328125q-0.703125 0 -1.609375 0.4375l-0.265625 -0.671875q0.421875 -0.21875 0.921875 -0.34375q0.515625 -0.140625 1.015625 -0.140625q1.015625 0 1.5 0.453125q0.5 0.453125 0.5 1.453125l0 3.890625l-0.640625 0zm-1.953125 -0.609375q0.8125 0 1.265625 -0.4375q0.46875 -0.453125 0.46875 -1.25l0 -0.5l-0.875 0.03125q-1.015625 0.03125 -1.484375 0.3125q-0.453125 0.28125 -0.453125 0.890625q0 0.46875 0.28125 0.71875q0.296875 0.234375 0.796875 0.234375zm6.2077484 0q0.234375 0 0.4375 -0.03125q0.21875 -0.03125 0.34375 -0.078125l0 0.671875q-0.140625 0.0625 -0.421875 0.109375q-0.265625 0.046875 -0.46875 0.046875q-1.65625 0 -1.65625 -1.75l0 -3.390625l-0.828125 0l0 -0.421875l0.828125 -0.359375l0.359375 -1.21875l0.5 0l0 1.328125l1.65625 0l0 0.671875l-1.65625 0l0 3.359375q0 0.515625 0.234375 0.796875q0.25 0.265625 0.671875 0.265625zm5.4338226 0.609375l-0.171875 -0.8125l-0.046875 0q-0.421875 0.53125 -0.84375 0.734375q-0.421875 0.1875 -1.0625 0.1875q-0.84375 0 -1.328125 -0.4375q-0.484375 -0.4375 -0.484375 -1.25q0 -1.71875 2.765625 -1.8125l0.96875 -0.03125l0 -0.34375q0 -0.671875 -0.296875 -0.984375q-0.28125 -0.328125 -0.921875 -0.328125q-0.703125 0 -1.609375 0.4375l-0.265625 -0.671875q0.421875 -0.21875 0.921875 -0.34375q0.515625 -0.140625 1.015625 -0.140625q1.015625 0 1.5 0.453125q0.5 0.453125 0.5 1.453125l0 3.890625l-0.640625 0zm-1.953125 -0.609375q0.8125 0 1.265625 -0.4375q0.46875 -0.453125 0.46875 -1.25l0 -0.5l-0.875 0.03125q-1.015625 0.03125 -1.484375 0.3125q-0.453125 0.28125 -0.453125 0.890625q0 0.46875 0.28125 0.71875q0.296875 0.234375 0.796875 0.234375zm10.819622 -0.953125q0 0.796875 -0.59375 1.234375q-0.59375 0.4375 -1.65625 0.4375q-1.1406212 0 -1.7812462 -0.359375l0 -0.8125q0.421875 0.21875 0.890625 0.34375q0.46875 0.109375 0.9062462 0.109375q0.671875 0 1.03125 -0.21875q0.375 -0.21875 0.375 -0.65625q0 -0.328125 -0.296875 -0.5625q-0.28125 -0.25 -1.125 -0.5625q-0.7968712 -0.296875 -1.1406212 -0.515625q-0.328125 -0.21875 -0.5 -0.5q-0.15625 -0.28125 -0.15625 -0.671875q0 -0.703125 0.5625 -1.109375q0.578125 -0.40625 1.5624962 -0.40625q0.921875 0 1.796875 0.375l-0.296875 0.703125q-0.859375 -0.34375 -1.5625 -0.34375q-0.6093712 0 -0.9218712 0.1875q-0.3125 0.1875 -0.3125 0.53125q0 0.234375 0.109375 0.390625q0.125 0.15625 0.375 0.3125q0.265625 0.140625 0.9999962 0.421875q1.015625 0.359375 1.375 0.734375q0.359375 0.375 0.359375 0.9375zm6.3335724 -1.296875q0 1.390625 -0.703125 2.1875q-0.703125 0.78125 -1.953125 0.78125q-0.75 0 -1.34375 -0.359375q-0.59375 -0.359375 -0.921875 -1.03125q-0.328125 -0.671875 -0.328125 -1.578125q0 -1.390625 0.703125 -2.171875q0.703125 -0.78125 1.9375 -0.78125q1.1875 0 1.890625 0.796875q0.71875 0.796875 0.71875 2.15625zm-4.34375 0q0 1.09375 0.4375 1.671875q0.4375 0.5625 1.28125 0.5625q0.84375 0 1.28125 -0.5625q0.4375 -0.578125 0.4375 -1.671875q0 -1.078125 -0.4375 -1.640625q-0.4375 -0.578125 -1.296875 -0.578125q-0.84375 0 -1.28125 0.5625q-0.421875 0.5625 -0.421875 1.65625zm6.6707916 -2.84375l0 3.703125q0 0.6875 0.3125 1.03125q0.3125 0.34375 0.984375 0.34375q0.90625 0 1.3125 -0.484375q0.421875 -0.484375 0.421875 -1.59375l0 -3.0l0.859375 0l0 5.703125l-0.71875 0l-0.125 -0.765625l-0.046875 0q-0.265625 0.421875 -0.734375 0.65625q-0.46875 0.21875 -1.078125 0.21875q-1.03125 0 -1.546875 -0.5q-0.515625 -0.5 -0.515625 -1.578125l0 -3.734375l0.875 0zm8.321732 -0.109375q0.375 0 0.6875 0.0625l-0.125 0.8125q-0.359375 -0.078125 -0.625 -0.078125q-0.6875 0 -1.1875 0.5625q-0.484375 0.5625 -0.484375 1.390625l0 3.0625l-0.859375 0l0 -5.703125l0.703125 0l0.109375 1.0625l0.03125 0q0.328125 -0.5625 0.765625 -0.859375q0.453125 -0.3125 0.984375 -0.3125zm4.0217896 5.921875q-1.234375 0 -1.921875 -0.765625q-0.671875 -0.765625 -0.671875 -2.15625q0 -1.4375 0.6875 -2.21875q0.703125 -0.78125 1.96875 -0.78125q0.40625 0 0.8125 0.09375q0.421875 0.09375 0.65625 0.203125l-0.265625 0.734375q-0.28125 -0.109375 -0.625 -0.1875q-0.34375 -0.078125 -0.59375 -0.078125q-1.734375 0 -1.734375 2.21875q0 1.046875 0.421875 1.609375q0.421875 0.5625 1.25 0.5625q0.71875 0 1.46875 -0.296875l0 0.765625q-0.578125 0.296875 -1.453125 0.296875zm5.213791 0q-1.265625 0 -2.0 -0.765625q-0.734375 -0.78125 -0.734375 -2.140625q0 -1.390625 0.671875 -2.203125q0.6875 -0.8125 1.828125 -0.8125q1.078125 0 1.703125 0.71875q0.625 0.703125 0.625 1.859375l0 0.546875l-3.921875 0q0.015625 1.0 0.5 1.515625q0.484375 0.515625 1.359375 0.515625q0.921875 0 1.8125 -0.375l0 0.765625q-0.453125 0.203125 -0.859375 0.28125q-0.40625 0.09375 -0.984375 0.09375zm-0.234375 -5.1875q-0.6875 0 -1.09375 0.453125q-0.40625 0.4375 -0.484375 1.234375l2.984375 0q0 -0.828125 -0.375 -1.25q-0.359375 -0.4375 -1.03125 -0.4375z" fill-rule="nonzero"/><path fill="#000000" fill-opacity="0.0" d="m385.67847 75.99475l47.118134 0l0 145.6693" fill-rule="evenodd"/><path stroke="#000000" stroke-width="1.0" stroke-linejoin="round" stroke-linecap="butt" d="m391.67847 75.99475l41.118134 0l0 139.6693" fill-rule="evenodd"/><path fill="#000000" stroke="#000000" stroke-width="1.0" stroke-linecap="butt" d="m391.67847 74.34302l-4.538086 1.6517334l4.538086 1.6517334z" fill-rule="evenodd"/><path fill="#000000" stroke="#000000" stroke-width="1.0" stroke-linecap="butt" d="m431.14487 215.66405l1.6517334 4.538086l1.6517334 -4.538086z" fill-rule="evenodd"/><path fill="#000000" fill-opacity="0.0" d="m211.52362 211.95276l64.71124 0l0 59.18109l64.706085 0" fill-rule="evenodd"/><path stroke="#000000" stroke-width="1.0" stroke-linejoin="round" stroke-linecap="butt" d="m211.52362 211.95276l64.71124 0l0 59.18109l58.706085 0" fill-rule="evenodd"/><path fill="#000000" stroke="#000000" stroke-width="1.0" stroke-linecap="butt" d="m334.94095 272.78558l4.538086 -1.6517334l-4.538086 -1.6517334z" fill-rule="evenodd"/><path fill="#000000" fill-opacity="0.0" d="m119.66535 162.48819l0 -86.48819l82.29922 0" fill-rule="evenodd"/><path stroke="#000000" stroke-width="1.0" stroke-linejoin="round" stroke-linecap="butt" d="m119.66535 156.48819l0 -80.48819l76.29922 0" fill-rule="evenodd"/><path fill="#000000" stroke="#000000" stroke-width="1.0" stroke-linecap="butt" d="m118.01362 156.48819l1.6517334 4.538101l1.6517334 -4.538101z" fill-rule="evenodd"/><path fill="#000000" stroke="#000000" stroke-width="1.0" stroke-linecap="butt" d="m195.96457 77.65173l4.538101 -1.6517334l-4.538101 -1.6517334z" fill-rule="evenodd"/><path fill="#666666" d="m398.0958 141.19685l69.41733 0l0 21.291336l-69.41733 0z" fill-rule="evenodd"/><path fill="#ffffff" d="m416.88065 154.52252l-0.15625 -0.5625l-0.0625 0q-0.1875 0.3125 -0.546875 0.484375q-0.34375 0.15625 -0.796875 0.15625q-0.765625 0 -1.15625 -0.40625q-0.390625 -0.421875 -0.390625 -1.1875l0 -2.859375l1.1875 0l0 2.5625q0 0.46875 0.15625 0.703125q0.171875 0.234375 0.546875 0.234375q0.5 0 0.71875 -0.328125q0.21875 -0.34375 0.21875 -1.109375l0 -2.0625l1.203125 0l0 4.375l-0.921875 0zm5.2109375 -1.296875q0 0.671875 -0.46875 1.03125q-0.46875 0.34375 -1.390625 0.34375q-0.484375 0 -0.828125 -0.0625q-0.328125 -0.0625 -0.609375 -0.1875l0 -0.984375q0.328125 0.15625 0.734375 0.265625q0.421875 0.09375 0.734375 0.09375q0.65625 0 0.65625 -0.375q0 -0.140625 -0.09375 -0.21875q-0.078125 -0.09375 -0.296875 -0.203125q-0.203125 -0.109375 -0.5625 -0.265625q-0.5 -0.203125 -0.734375 -0.375q-0.234375 -0.1875 -0.34375 -0.421875q-0.109375 -0.234375 -0.109375 -0.578125q0 -0.578125 0.453125 -0.890625q0.453125 -0.328125 1.28125 -0.328125q0.78125 0 1.53125 0.34375l-0.359375 0.859375q-0.328125 -0.140625 -0.609375 -0.21875q-0.28125 -0.09375 -0.578125 -0.09375q-0.53125 0 -0.53125 0.28125q0 0.15625 0.171875 0.28125q0.171875 0.109375 0.734375 0.34375q0.515625 0.203125 0.75 0.390625q0.25 0.171875 0.359375 0.40625q0.109375 0.234375 0.109375 0.5625zm2.7421875 -2.3125q-0.375 0 -0.59375 0.25q-0.21875 0.234375 -0.25 0.671875l1.671875 0q0 -0.4375 -0.234375 -0.671875q-0.21875 -0.25 -0.59375 -0.25zm0.171875 3.6875q-1.0625 0 -1.65625 -0.578125q-0.59375 -0.59375 -0.59375 -1.65625q0 -1.09375 0.546875 -1.6875q0.546875 -0.609375 1.515625 -0.609375q0.9375 0 1.453125 0.53125q0.515625 0.53125 0.515625 1.453125l0 0.578125l-2.828125 0q0.03125 0.515625 0.3125 0.796875q0.28125 0.28125 0.78125 0.28125q0.390625 0 0.734375 -0.078125q0.359375 -0.078125 0.75 -0.265625l0 0.921875q-0.3125 0.15625 -0.671875 0.234375q-0.359375 0.078125 -0.859375 0.078125zm5.1796875 -4.53125q0.25 0 0.40625 0.03125l-0.09375 1.125q-0.140625 -0.046875 -0.34375 -0.046875q-0.578125 0 -0.90625 0.296875q-0.3125 0.296875 -0.3125 0.828125l0 2.21875l-1.1875 0l0 -4.375l0.90625 0l0.171875 0.734375l0.0625 0q0.203125 -0.359375 0.546875 -0.578125q0.34375 -0.234375 0.75 -0.234375zm4.4609375 4.453125l-1.1875 0l0 -6.078125l1.1875 0l0 6.078125zm2.2070312 -2.1875q0 0.640625 0.203125 0.984375q0.21875 0.328125 0.703125 0.328125q0.46875 0 0.671875 -0.328125q0.21875 -0.34375 0.21875 -0.984375q0 -0.65625 -0.21875 -0.96875q-0.203125 -0.328125 -0.6875 -0.328125q-0.46875 0 -0.6875 0.328125q-0.203125 0.3125 -0.203125 0.96875zm3.015625 0q0 1.0625 -0.5625 1.671875q-0.5625 0.59375 -1.5625 0.59375q-0.625 0 -1.109375 -0.265625q-0.484375 -0.28125 -0.75 -0.796875q-0.25 -0.515625 -0.25 -1.203125q0 -1.078125 0.5625 -1.671875q0.5625 -0.59375 1.5625 -0.59375q0.640625 0 1.109375 0.28125q0.484375 0.265625 0.734375 0.78125q0.265625 0.515625 0.265625 1.203125zm4.78125 -2.1875l0 0.609375l-0.671875 0.171875q0.1875 0.296875 0.1875 0.65625q0 0.703125 -0.5 1.109375q-0.484375 0.390625 -1.359375 0.390625l-0.21875 -0.015625l-0.171875 -0.015625q-0.1875 0.140625 -0.1875 0.3125q0 0.25 0.65625 0.25l0.75 0q0.71875 0 1.09375 0.3125q0.375 0.3125 0.375 0.90625q0 0.765625 -0.640625 1.1875q-0.640625 0.421875 -1.828125 0.421875q-0.921875 0 -1.40625 -0.328125q-0.46875 -0.3125 -0.46875 -0.875q0 -0.40625 0.234375 -0.671875q0.25 -0.265625 0.734375 -0.375q-0.1875 -0.078125 -0.328125 -0.25q-0.140625 -0.1875 -0.140625 -0.390625q0 -0.25 0.140625 -0.40625q0.15625 -0.171875 0.421875 -0.328125q-0.34375 -0.15625 -0.546875 -0.484375q-0.1875 -0.328125 -0.1875 -0.765625q0 -0.71875 0.453125 -1.109375q0.46875 -0.390625 1.328125 -0.390625q0.1875 0 0.4375 0.03125q0.25 0.03125 0.328125 0.046875l1.515625 0zm-3.359375 5.0q0 0.234375 0.234375 0.375q0.234375 0.140625 0.65625 0.140625q0.640625 0 1.0 -0.171875q0.375 -0.171875 0.375 -0.484375q0 -0.234375 -0.21875 -0.328125q-0.21875 -0.09375 -0.671875 -0.09375l-0.609375 0q-0.328125 0 -0.546875 0.140625q-0.21875 0.15625 -0.21875 0.421875zm0.421875 -3.5625q0 0.359375 0.15625 0.5625q0.171875 0.203125 0.5 0.203125q0.34375 0 0.5 -0.203125q0.15625 -0.203125 0.15625 -0.5625q0 -0.796875 -0.65625 -0.796875q-0.65625 0 -0.65625 0.796875zm3.6132812 -2.5625q0 -0.578125 0.640625 -0.578125q0.65625 0 0.65625 0.578125q0 0.28125 -0.171875 0.4375q-0.15625 0.15625 -0.484375 0.15625q-0.640625 0 -0.640625 -0.59375zm1.234375 5.5l-1.1875 0l0 -4.375l1.1875 0l0 4.375zm5.2851562 0l-1.1875 0l0 -2.546875q0 -0.484375 -0.171875 -0.71875q-0.171875 -0.234375 -0.53125 -0.234375q-0.5 0 -0.734375 0.34375q-0.21875 0.328125 -0.21875 1.09375l0 2.0625l-1.1875 0l0 -4.375l0.90625 0l0.171875 0.5625l0.0625 0q0.203125 -0.3125 0.546875 -0.46875q0.34375 -0.171875 0.796875 -0.171875q0.765625 0 1.15625 0.421875q0.390625 0.40625 0.390625 1.1875l0 2.84375z" fill-rule="nonzero"/><path fill="#666666" d="m78.51705 93.80315l82.29922 0l0 26.456696l-82.29922 0z" fill-rule="evenodd"/><path fill="#ffffff" d="m94.127594 104.78962q-0.78125 0 -1.21875 -0.59375q-0.4375 -0.609375 -0.4375 -1.65625q0 -1.078125 0.4375 -1.671875q0.453125 -0.609375 1.25 -0.609375q0.8125 0 1.25 0.640625l0.046875 0q-0.09375 -0.484375 -0.09375 -0.875l0 -1.390625l1.1875 0l0 6.078125l-0.90625 0l-0.234375 -0.5625l-0.046875 0q-0.40625 0.640625 -1.234375 0.640625zm0.40625 -0.953125q0.46875 0 0.671875 -0.265625q0.21875 -0.265625 0.234375 -0.90625l0 -0.125q0 -0.703125 -0.21875 -1.0q-0.21875 -0.3125 -0.703125 -0.3125q-0.390625 0 -0.625 0.34375q-0.21875 0.328125 -0.21875 0.984375q0 0.640625 0.21875 0.96875q0.234375 0.3125 0.640625 0.3125zm6.046875 0.875l-0.234375 -0.59375l-0.03125 0q-0.296875 0.375 -0.625 0.53125q-0.3125 0.140625 -0.828125 0.140625q-0.625 0 -0.984375 -0.359375q-0.359375 -0.359375 -0.359375 -1.03125q0 -0.6875 0.484375 -1.015625q0.484375 -0.328125 1.46875 -0.375l0.75 -0.015625l0 -0.1875q0 -0.671875 -0.671875 -0.671875q-0.53125 0 -1.234375 0.3125l-0.390625 -0.796875q0.75 -0.390625 1.671875 -0.390625q0.875 0 1.34375 0.390625q0.46875 0.375 0.46875 1.15625l0 2.90625l-0.828125 0zm-0.359375 -2.03125l-0.453125 0.015625q-0.53125 0.015625 -0.78125 0.1875q-0.25 0.171875 -0.25 0.53125q0 0.5 0.578125 0.5q0.40625 0 0.65625 -0.234375q0.25 -0.234375 0.25 -0.640625l0 -0.359375zm4.2539062 1.15625q0.3125 0 0.75 -0.140625l0 0.890625q-0.453125 0.203125 -1.09375 0.203125q-0.71875 0 -1.046875 -0.359375q-0.328125 -0.359375 -0.328125 -1.09375l0 -2.09375l-0.5625 0l0 -0.515625l0.65625 -0.390625l0.34375 -0.921875l0.765625 0l0 0.921875l1.21875 0l0 0.90625l-1.21875 0l0 2.09375q0 0.265625 0.140625 0.390625q0.140625 0.109375 0.375 0.109375zm4.4101562 0.875l-0.234375 -0.59375l-0.03125 0q-0.296875 0.375 -0.625 0.53125q-0.3125 0.140625 -0.828125 0.140625q-0.625 0 -0.984375 -0.359375q-0.359375 -0.359375 -0.359375 -1.03125q0 -0.6875 0.484375 -1.015625q0.484375 -0.328125 1.46875 -0.375l0.75 -0.015625l0 -0.1875q0 -0.671875 -0.671875 -0.671875q-0.53125 0 -1.234375 0.3125l-0.390625 -0.796875q0.75 -0.390625 1.671875 -0.390625q0.875 0 1.34375 0.390625q0.46875 0.375 0.46875 1.15625l0 2.90625l-0.828125 0zm-0.359375 -2.03125l-0.453125 0.015625q-0.53125 0.015625 -0.78125 0.1875q-0.25 0.171875 -0.25 0.53125q0 0.5 0.578125 0.5q0.40625 0 0.65625 -0.234375q0.25 -0.234375 0.25 -0.640625l0 -0.359375zm6.9257812 -2.421875q0.25 0 0.40625 0.03125l-0.09375 1.125q-0.140625 -0.046875 -0.34375 -0.046875q-0.578125 0 -0.90625 0.296875q-0.3125 0.296875 -0.3125 0.828125l0 2.21875l-1.1875 0l0 -4.375l0.90625 0l0.171875 0.734375l0.0625 0q0.203125 -0.359375 0.546875 -0.578125q0.34375 -0.234375 0.75 -0.234375zm3.0078125 0.84375q-0.375 0 -0.59375 0.25q-0.21875 0.234375 -0.25 0.671875l1.671875 0q0 -0.4375 -0.234375 -0.671875q-0.21875 -0.25 -0.59375 -0.25zm0.171875 3.6875q-1.0625 0 -1.65625 -0.578125q-0.59375 -0.59375 -0.59375 -1.65625q0 -1.09375 0.546875 -1.6875q0.546875 -0.609375 1.515625 -0.609375q0.9375 0 1.453125 0.53125q0.515625 0.53125 0.515625 1.453125l0 0.578125l-2.828125 0q0.03125 0.515625 0.3125 0.796875q0.28125 0.28125 0.78125 0.28125q0.390625 0 0.734375 -0.078125q0.359375 -0.078125 0.75 -0.265625l0 0.921875q-0.3125 0.15625 -0.671875 0.234375q-0.359375 0.078125 -0.859375 0.078125zm4.5546875 -0.9375q0.453125 0 0.65625 -0.25q0.21875 -0.265625 0.234375 -0.921875l0 -0.140625q0 -0.703125 -0.21875 -1.0q-0.21875 -0.3125 -0.6875 -0.3125q-0.84375 0 -0.84375 1.328125q0 0.65625 0.203125 0.984375q0.21875 0.3125 0.65625 0.3125zm-0.421875 0.9375q-0.78125 0 -1.21875 -0.59375q-0.4375 -0.59375 -0.4375 -1.65625q0 -1.078125 0.4375 -1.671875q0.453125 -0.609375 1.234375 -0.609375q0.421875 0 0.71875 0.15625q0.3125 0.15625 0.546875 0.484375l0.03125 0l0.109375 -0.5625l1.0 0l0 6.296875l-1.1875 0l0 -1.828125q0 -0.25 0.046875 -0.65625l-0.046875 0q-0.1875 0.3125 -0.515625 0.484375q-0.3125 0.15625 -0.71875 0.15625zm6.765625 -0.078125l-0.15625 -0.5625l-0.0625 0q-0.1875 0.3125 -0.546875 0.484375q-0.34375 0.15625 -0.796875 0.15625q-0.765625 0 -1.15625 -0.40625q-0.390625 -0.421875 -0.390625 -1.1875l0 -2.859375l1.1875 0l0 2.5625q0 0.46875 0.15625 0.703125q0.171875 0.234375 0.546875 0.234375q0.5 0 0.71875 -0.328125q0.21875 -0.34375 0.21875 -1.109375l0 -2.0625l1.203125 0l0 4.375l-0.921875 0zm3.9765625 -3.609375q-0.375 0 -0.59375 0.25q-0.21875 0.234375 -0.25 0.671875l1.671875 0q0 -0.4375 -0.234375 -0.671875q-0.21875 -0.25 -0.59375 -0.25zm0.171875 3.6875q-1.0625 0 -1.65625 -0.578125q-0.59375 -0.59375 -0.59375 -1.65625q0 -1.09375 0.546875 -1.6875q0.546875 -0.609375 1.515625 -0.609375q0.9375 0 1.453125 0.53125q0.515625 0.53125 0.515625 1.453125l0 0.578125l-2.828125 0q0.03125 0.515625 0.3125 0.796875q0.28125 0.28125 0.78125 0.28125q0.390625 0 0.734375 -0.078125q0.359375 -0.078125 0.75 -0.265625l0 0.921875q-0.3125 0.15625 -0.671875 0.234375q-0.359375 0.078125 -0.859375 0.078125zm5.7890625 -1.375q0 0.671875 -0.46875 1.03125q-0.46875 0.34375 -1.390625 0.34375q-0.484375 0 -0.828125 -0.0625q-0.328125 -0.0625 -0.609375 -0.1875l0 -0.984375q0.328125 0.15625 0.734375 0.265625q0.421875 0.09375 0.734375 0.09375q0.65625 0 0.65625 -0.375q0 -0.140625 -0.09375 -0.21875q-0.078125 -0.09375 -0.296875 -0.203125q-0.203125 -0.109375 -0.5625 -0.265625q-0.5 -0.203125 -0.734375 -0.375q-0.234375 -0.1875 -0.34375 -0.421875q-0.109375 -0.234375 -0.109375 -0.578125q0 -0.578125 0.453125 -0.890625q0.453125 -0.328125 1.28125 -0.328125q0.78125 0 1.53125 0.34375l-0.359375 0.859375q-0.328125 -0.140625 -0.609375 -0.21875q-0.28125 -0.09375 -0.578125 -0.09375q-0.53125 0 -0.53125 0.28125q0 0.15625 0.171875 0.28125q0.171875 0.109375 0.734375 0.34375q0.515625 0.203125 0.75 0.390625q0.25 0.171875 0.359375 0.40625q0.109375 0.234375 0.109375 0.5625zm2.7734375 0.421875q0.3125 0 0.75 -0.140625l0 0.890625q-0.453125 0.203125 -1.09375 0.203125q-0.71875 0 -1.046875 -0.359375q-0.328125 -0.359375 -0.328125 -1.09375l0 -2.09375l-0.5625 0l0 -0.515625l0.65625 -0.390625l0.34375 -0.921875l0.765625 0l0 0.921875l1.21875 0l0 0.90625l-1.21875 0l0 2.09375q0 0.265625 0.140625 0.390625q0.140625 0.109375 0.375 0.109375zm4.6757812 -0.421875q0 0.671875 -0.46875 1.03125q-0.46875 0.34375 -1.390625 0.34375q-0.484375 0 -0.828125 -0.0625q-0.328125 -0.0625 -0.609375 -0.1875l0 -0.984375q0.328125 0.15625 0.734375 0.265625q0.421875 0.09375 0.734375 0.09375q0.65625 0 0.65625 -0.375q0 -0.140625 -0.09375 -0.21875q-0.078125 -0.09375 -0.296875 -0.203125q-0.203125 -0.109375 -0.5625 -0.265625q-0.5 -0.203125 -0.734375 -0.375q-0.234375 -0.1875 -0.34375 -0.421875q-0.109375 -0.234375 -0.109375 -0.578125q0 -0.578125 0.453125 -0.890625q0.453125 -0.328125 1.28125 -0.328125q0.78125 0 1.53125 0.34375l-0.359375 0.859375q-0.328125 -0.140625 -0.609375 -0.21875q-0.28125 -0.09375 -0.578125 -0.09375q-0.53125 0 -0.53125 0.28125q0 0.15625 0.171875 0.28125q0.171875 0.109375 0.734375 0.34375q0.515625 0.203125 0.75 0.390625q0.25 0.171875 0.359375 0.40625q0.109375 0.234375 0.109375 0.5625z" fill-rule="nonzero"/><path fill="#ffffff" d="m107.79166 114.711494l-1.671875 -4.375l1.25 0l0.84375 2.5q0.140625 0.46875 0.171875 0.890625l0.03125 0q0.015625 -0.375 0.171875 -0.890625l0.84375 -2.5l1.234375 0l-1.65625 4.375l-1.21875 0zm3.4570312 -5.5q0 -0.578125 0.640625 -0.578125q0.65625 0 0.65625 0.578125q0 0.28125 -0.171875 0.4375q-0.15625 0.15625 -0.484375 0.15625q-0.640625 0 -0.640625 -0.59375zm1.234375 5.5l-1.1875 0l0 -4.375l1.1875 0l0 4.375zm4.0351562 0l-0.234375 -0.59375l-0.03125 0q-0.296875 0.375 -0.625 0.53125q-0.3125 0.140625 -0.828125 0.140625q-0.625 0 -0.984375 -0.359375q-0.359375 -0.359375 -0.359375 -1.03125q0 -0.6875 0.484375 -1.015625q0.484375 -0.328125 1.46875 -0.375l0.75 -0.015625l0 -0.1875q0 -0.671875 -0.671875 -0.671875q-0.53125 0 -1.234375 0.3125l-0.390625 -0.796875q0.75 -0.390625 1.671875 -0.390625q0.875 0 1.34375 0.390625q0.46875 0.375 0.46875 1.15625l0 2.90625l-0.828125 0zm-0.359375 -2.03125l-0.453125 0.015625q-0.53125 0.015625 -0.78125 0.1875q-0.25 0.171875 -0.25 0.53125q0 0.5 0.578125 0.5q0.40625 0 0.65625 -0.234375q0.25 -0.234375 0.25 -0.640625l0 -0.359375zm8.082031 2.03125l-0.421875 -1.359375l-2.078125 0l-0.40625 1.359375l-1.3125 0l2.015625 -5.734375l1.484375 0l2.015625 5.734375l-1.296875 0zm-0.703125 -2.375q-0.578125 -1.84375 -0.65625 -2.078125q-0.0625 -0.25 -0.09375 -0.390625q-0.125 0.5 -0.734375 2.46875l1.484375 0zm3.9414062 -0.65625l0.390625 0q0.5625 0 0.828125 -0.21875q0.28125 -0.21875 0.28125 -0.640625q0 -0.421875 -0.234375 -0.625q-0.21875 -0.203125 -0.71875 -0.203125l-0.546875 0l0 1.6875zm2.734375 -0.90625q0 0.921875 -0.578125 1.421875q-0.578125 0.484375 -1.640625 0.484375l-0.515625 0l0 2.03125l-1.21875 0l0 -5.71875l1.828125 0q1.03125 0 1.578125 0.453125q0.546875 0.453125 0.546875 1.328125zm1.0703125 3.9375l0 -5.71875l1.21875 0l0 5.71875l-1.21875 0z" fill-rule="nonzero"/><path fill="#666666" d="m238.53018 225.81364l75.40158 0l0 26.456696l-75.40158 0z" fill-rule="evenodd"/><path fill="#ffffff" d="m256.5669 236.722l-1.6718597 -4.375l1.2499847 0l0.84375 2.5q0.140625 0.46875 0.171875 0.890625l0.03125 0q0.015625 -0.375 0.171875 -0.890625l0.84375 -2.5l1.234375 0l-1.65625 4.375l-1.21875 0zm5.3164062 -3.609375q-0.375 0 -0.59375 0.25q-0.21875 0.234375 -0.25 0.671875l1.671875 0q0 -0.4375 -0.234375 -0.671875q-0.21875 -0.25 -0.59375 -0.25zm0.171875 3.6875q-1.0625 0 -1.65625 -0.578125q-0.59375 -0.59375 -0.59375 -1.65625q0 -1.09375 0.546875 -1.6875q0.546875 -0.609375 1.515625 -0.609375q0.9375 0 1.453125 0.53125q0.515625 0.53125 0.515625 1.453125l0 0.578125l-2.828125 0q0.03125 0.515625 0.3125 0.796875q0.28125 0.28125 0.78125 0.28125q0.390625 0 0.734375 -0.078125q0.359375 -0.078125 0.75 -0.265625l0 0.921875q-0.3125 0.15625 -0.671875 0.234375q-0.359375 0.078125 -0.859375 0.078125zm5.1796875 -4.53125q0.25 0 0.40625 0.03125l-0.09375 1.125q-0.140625 -0.046875 -0.34375 -0.046875q-0.578125 0 -0.90625 0.296875q-0.3125 0.296875 -0.3125 0.828125l0 2.21875l-1.1875 0l0 -4.375l0.90625 0l0.171875 0.734375l0.0625 0q0.203125 -0.359375 0.546875 -0.578125q0.34375 -0.234375 0.75 -0.234375zm1.1484375 -1.046875q0 -0.578125 0.640625 -0.578125q0.65625 0 0.65625 0.578125q0 0.28125 -0.171875 0.4375q-0.15625 0.15625 -0.484375 0.15625q-0.640625 0 -0.640625 -0.59375zm1.234375 5.5l-1.1875 0l0 -4.375l1.1875 0l0 4.375zm3.6757812 -3.46875l-1.03125 0l0 3.46875l-1.203125 0l0 -3.46875l-0.65625 0l0 -0.578125l0.65625 -0.328125l0 -0.3125q0 -0.75 0.359375 -1.09375q0.375 -0.34375 1.1875 -0.34375q0.625 0 1.09375 0.1875l-0.296875 0.875q-0.359375 -0.109375 -0.671875 -0.109375q-0.25 0 -0.359375 0.15625q-0.109375 0.140625 -0.109375 0.375l0 0.265625l1.03125 0l0 0.90625zm0.05078125 -0.90625l1.3125 0l0.8125 2.46875q0.109375 0.3125 0.15625 0.75l0.015625 0q0.046875 -0.40625 0.171875 -0.75l0.8125 -2.46875l1.265625 0l-1.84375 4.9375q-0.25 0.6875 -0.71875 1.015625q-0.46875 0.34375 -1.109375 0.34375q-0.296875 0 -0.59375 -0.0625l0 -0.953125q0.203125 0.0625 0.46875 0.0625q0.3125 0 0.546875 -0.203125q0.234375 -0.1875 0.375 -0.578125l0.0625 -0.21875l-1.734375 -4.34375zm10.347656 4.375l-0.15625 -0.5625l-0.0625 0q-0.1875 0.3125 -0.546875 0.484375q-0.34375 0.15625 -0.796875 0.15625q-0.765625 0 -1.15625 -0.40625q-0.390625 -0.421875 -0.390625 -1.1875l0 -2.859375l1.1875 0l0 2.5625q0 0.46875 0.15625 0.703125q0.171875 0.234375 0.546875 0.234375q0.5 0 0.71875 -0.328125q0.21875 -0.34375 0.21875 -1.109375l0 -2.0625l1.203125 0l0 4.375l-0.921875 0zm5.2109375 -1.296875q0 0.671875 -0.46875 1.03125q-0.46875 0.34375 -1.390625 0.34375q-0.484375 0 -0.828125 -0.0625q-0.328125 -0.0625 -0.609375 -0.1875l0 -0.984375q0.328125 0.15625 0.734375 0.265625q0.421875 0.09375 0.734375 0.09375q0.65625 0 0.65625 -0.375q0 -0.140625 -0.09375 -0.21875q-0.078125 -0.09375 -0.296875 -0.203125q-0.203125 -0.109375 -0.5625 -0.265625q-0.5 -0.203125 -0.734375 -0.375q-0.234375 -0.1875 -0.34375 -0.421875q-0.109375 -0.234375 -0.109375 -0.578125q0 -0.578125 0.453125 -0.890625q0.453125 -0.328125 1.28125 -0.328125q0.78125 0 1.53125 0.34375l-0.359375 0.859375q-0.328125 -0.140625 -0.609375 -0.21875q-0.28125 -0.09375 -0.578125 -0.09375q-0.53125 0 -0.53125 0.28125q0 0.15625 0.171875 0.28125q0.171875 0.109375 0.734375 0.34375q0.515625 0.203125 0.75 0.390625q0.25 0.171875 0.359375 0.40625q0.109375 0.234375 0.109375 0.5625zm2.7421875 -2.3125q-0.375 0 -0.59375 0.25q-0.21875 0.234375 -0.25 0.671875l1.671875 0q0 -0.4375 -0.234375 -0.671875q-0.21875 -0.25 -0.59375 -0.25zm0.171875 3.6875q-1.0625 0 -1.65625 -0.578125q-0.59375 -0.59375 -0.59375 -1.65625q0 -1.09375 0.546875 -1.6875q0.546875 -0.609375 1.515625 -0.609375q0.9375 0 1.453125 0.53125q0.515625 0.53125 0.515625 1.453125l0 0.578125l-2.828125 0q0.03125 0.515625 0.3125 0.796875q0.28125 0.28125 0.78125 0.28125q0.390625 0 0.734375 -0.078125q0.359375 -0.078125 0.75 -0.265625l0 0.921875q-0.3125 0.15625 -0.671875 0.234375q-0.359375 0.078125 -0.859375 0.078125zm5.1796875 -4.53125q0.25 0 0.40625 0.03125l-0.09375 1.125q-0.140625 -0.046875 -0.34375 -0.046875q-0.578125 0 -0.90625 0.296875q-0.3125 0.296875 -0.3125 0.828125l0 2.21875l-1.1875 0l0 -4.375l0.90625 0l0.171875 0.734375l0.0625 0q0.203125 -0.359375 0.546875 -0.578125q0.34375 -0.234375 0.75 -0.234375z" fill-rule="nonzero"/><path fill="#ffffff" d="m255.11183 246.80013q-0.78125 0 -1.21875 -0.5625l-0.0625 0q0.0625 0.546875 0.0625 0.640625l0 1.765625l-1.1875 0l0 -6.296875l0.96875 0l0.171875 0.578125l0.046875 0q0.421875 -0.65625 1.25 -0.65625q0.765625 0 1.2031097 0.609375q0.4375 0.59375 0.4375 1.65625q0 0.6875 -0.203125 1.203125q-0.203125 0.515625 -0.59373474 0.796875q-0.375 0.265625 -0.875 0.265625zm-0.359375 -3.578125q-0.4375 0 -0.640625 0.28125q-0.203125 0.265625 -0.21875 0.890625l0 0.125q0 0.703125 0.203125 1.015625q0.21875 0.296875 0.671875 0.296875q0.796875 0 0.796875 -1.3125q0 -0.65625 -0.203125 -0.96875q-0.1875 -0.328125 -0.609375 -0.328125zm4.8281097 -0.109375q-0.375 0 -0.59375 0.25q-0.21875 0.234375 -0.25 0.671875l1.671875 0q0 -0.4375 -0.234375 -0.671875q-0.21875 -0.25 -0.59375 -0.25zm0.171875 3.6875q-1.0625 0 -1.65625 -0.578125q-0.59375 -0.59375 -0.59375 -1.65625q0 -1.09375 0.546875 -1.6875q0.546875 -0.609375 1.515625 -0.609375q0.9375 0 1.453125 0.53125q0.515625 0.53125 0.515625 1.453125l0 0.578125l-2.828125 0q0.03125 0.515625 0.3125 0.796875q0.28125 0.28125 0.78125 0.28125q0.390625 0 0.734375 -0.078125q0.359375 -0.078125 0.75 -0.265625l0 0.921875q-0.3125 0.15625 -0.671875 0.234375q-0.359375 0.078125 -0.859375 0.078125zm5.1796875 -4.53125q0.25 0 0.40625 0.03125l-0.09375 1.125q-0.140625 -0.046875 -0.34375 -0.046875q-0.578125 0 -0.90625 0.296875q-0.3125 0.296875 -0.3125 0.828125l0 2.21875l-1.1875 0l0 -4.375l0.90625 0l0.171875 0.734375l0.0625 0q0.203125 -0.359375 0.546875 -0.578125q0.34375 -0.234375 0.75 -0.234375zm5.1015625 4.453125l-1.1875 0l0 -2.546875q0 -0.484375 -0.15625 -0.71875q-0.15625 -0.234375 -0.5 -0.234375q-0.453125 0 -0.671875 0.34375q-0.203125 0.328125 -0.203125 1.09375l0 2.0625l-1.1875 0l0 -4.375l0.90625 0l0.171875 0.5625l0.0625 0q0.171875 -0.296875 0.5 -0.46875q0.34375 -0.171875 0.765625 -0.171875q0.984375 0 1.328125 0.640625l0.109375 0q0.171875 -0.296875 0.515625 -0.46875q0.34375 -0.171875 0.765625 -0.171875q0.75 0 1.125 0.390625q0.390625 0.375 0.390625 1.21875l0 2.84375l-1.203125 0l0 -2.546875q0 -0.484375 -0.15625 -0.71875q-0.15625 -0.234375 -0.5 -0.234375q-0.4375 0 -0.65625 0.3125q-0.21875 0.3125 -0.21875 1.0l0 2.1875zm3.9023438 -5.5q0 -0.578125 0.640625 -0.578125q0.65625 0 0.65625 0.578125q0 0.28125 -0.171875 0.4375q-0.15625 0.15625 -0.484375 0.15625q-0.640625 0 -0.640625 -0.59375zm1.234375 5.5l-1.1875 0l0 -4.375l1.1875 0l0 4.375zm4.3007812 -1.296875q0 0.671875 -0.46875 1.03125q-0.46875 0.34375 -1.390625 0.34375q-0.484375 0 -0.828125 -0.0625q-0.328125 -0.0625 -0.609375 -0.1875l0 -0.984375q0.328125 0.15625 0.734375 0.265625q0.421875 0.09375 0.734375 0.09375q0.65625 0 0.65625 -0.375q0 -0.140625 -0.09375 -0.21875q-0.078125 -0.09375 -0.296875 -0.203125q-0.203125 -0.109375 -0.5625 -0.265625q-0.5 -0.203125 -0.734375 -0.375q-0.234375 -0.1875 -0.34375 -0.421875q-0.109375 -0.234375 -0.109375 -0.578125q0 -0.578125 0.453125 -0.890625q0.453125 -0.328125 1.28125 -0.328125q0.78125 0 1.53125 0.34375l-0.359375 0.859375q-0.328125 -0.140625 -0.609375 -0.21875q-0.28125 -0.09375 -0.578125 -0.09375q-0.53125 0 -0.53125 0.28125q0 0.15625 0.171875 0.28125q0.171875 0.109375 0.734375 0.34375q0.515625 0.203125 0.75 0.390625q0.25 0.171875 0.359375 0.40625q0.109375 0.234375 0.109375 0.5625zm3.9765625 0q0 0.671875 -0.46875 1.03125q-0.46875 0.34375 -1.390625 0.34375q-0.484375 0 -0.828125 -0.0625q-0.328125 -0.0625 -0.609375 -0.1875l0 -0.984375q0.328125 0.15625 0.734375 0.265625q0.421875 0.09375 0.734375 0.09375q0.65625 0 0.65625 -0.375q0 -0.140625 -0.09375 -0.21875q-0.078125 -0.09375 -0.296875 -0.203125q-0.203125 -0.109375 -0.5625 -0.265625q-0.5 -0.203125 -0.734375 -0.375q-0.234375 -0.1875 -0.34375 -0.421875q-0.109375 -0.234375 -0.109375 -0.578125q0 -0.578125 0.453125 -0.890625q0.453125 -0.328125 1.28125 -0.328125q0.78125 0 1.53125 0.34375l-0.359375 0.859375q-0.328125 -0.140625 -0.609375 -0.21875q-0.28125 -0.09375 -0.578125 -0.09375q-0.53125 0 -0.53125 0.28125q0 0.15625 0.171875 0.28125q0.171875 0.109375 0.734375 0.34375q0.515625 0.203125 0.75 0.390625q0.25 0.171875 0.359375 0.40625q0.109375 0.234375 0.109375 0.5625zm0.8828125 -4.203125q0 -0.578125 0.640625 -0.578125q0.65625 0 0.65625 0.578125q0 0.28125 -0.171875 0.4375q-0.15625 0.15625 -0.484375 0.15625q-0.640625 0 -0.640625 -0.59375zm1.234375 5.5l-1.1875 0l0 -4.375l1.1875 0l0 4.375zm2.2070312 -2.1875q0 0.640625 0.203125 0.984375q0.21875 0.328125 0.703125 0.328125q0.46875 0 0.671875 -0.328125q0.21875 -0.34375 0.21875 -0.984375q0 -0.65625 -0.21875 -0.96875q-0.203125 -0.328125 -0.6875 -0.328125q-0.46875 0 -0.6875 0.328125q-0.203125 0.3125 -0.203125 0.96875zm3.015625 0q0 1.0625 -0.5625 1.671875q-0.5625 0.59375 -1.5625 0.59375q-0.625 0 -1.109375 -0.265625q-0.484375 -0.28125 -0.75 -0.796875q-0.25 -0.515625 -0.25 -1.203125q0 -1.078125 0.5625 -1.671875q0.5625 -0.59375 1.5625 -0.59375q0.640625 0 1.109375 0.28125q0.484375 0.265625 0.734375 0.78125q0.265625 0.515625 0.265625 1.203125zm5.015625 2.1875l-1.1875 0l0 -2.546875q0 -0.484375 -0.171875 -0.71875q-0.171875 -0.234375 -0.53125 -0.234375q-0.5 0 -0.734375 0.34375q-0.21875 0.328125 -0.21875 1.09375l0 2.0625l-1.1875 0l0 -4.375l0.90625 0l0.171875 0.5625l0.0625 0q0.203125 -0.3125 0.546875 -0.46875q0.34375 -0.171875 0.796875 -0.171875q0.765625 0 1.15625 0.421875q0.390625 0.40625 0.390625 1.1875l0 2.84375zm4.2734375 -1.296875q0 0.671875 -0.46875 1.03125q-0.46875 0.34375 -1.390625 0.34375q-0.484375 0 -0.828125 -0.0625q-0.328125 -0.0625 -0.609375 -0.1875l0 -0.984375q0.328125 0.15625 0.734375 0.265625q0.421875 0.09375 0.734375 0.09375q0.65625 0 0.65625 -0.375q0 -0.140625 -0.09375 -0.21875q-0.078125 -0.09375 -0.296875 -0.203125q-0.203125 -0.109375 -0.5625 -0.265625q-0.5 -0.203125 -0.734375 -0.375q-0.234375 -0.1875 -0.34375 -0.421875q-0.109375 -0.234375 -0.109375 -0.578125q0 -0.578125 0.453125 -0.890625q0.453125 -0.328125 1.28125 -0.328125q0.78125 0 1.53125 0.34375l-0.359375 0.859375q-0.328125 -0.140625 -0.609375 -0.21875q-0.28125 -0.09375 -0.578125 -0.09375q-0.53125 0 -0.53125 0.28125q0 0.15625 0.171875 0.28125q0.171875 0.109375 0.734375 0.34375q0.515625 0.203125 0.75 0.390625q0.25 0.171875 0.359375 0.40625q0.109375 0.234375 0.109375 0.5625z" fill-rule="nonzero"/><path fill="#cfe2f3" d="m154.84645 249.62582l0 0c0 4.7059326 10.54776 8.5208435 23.559067 8.5208435c13.011307 0 23.559052 -3.814911 23.559052 -8.5208435l0 37.41501c0 4.7059326 -10.547745 8.5208435 -23.559052 8.5208435c-13.011307 0 -23.559067 -3.814911 -23.559067 -8.5208435z" fill-rule="evenodd"/><path fill="#e2edf7" d="m154.84645 249.62582l0 0c0 -4.7059326 10.54776 -8.5208435 23.559067 -8.5208435c13.011307 0 23.559052 3.814911 23.559052 8.5208435l0 0c0 4.7059326 -10.547745 8.5208435 -23.559052 8.5208435c-13.011307 0 -23.559067 -3.814911 -23.559067 -8.5208435z" fill-rule="evenodd"/><path fill="#000000" fill-opacity="0.0" d="m201.96457 249.62582l0 0c0 4.7059326 -10.547745 8.5208435 -23.559052 8.5208435c-13.011307 0 -23.559067 -3.814911 -23.559067 -8.5208435l0 0c0 -4.7059326 10.54776 -8.5208435 23.559067 -8.5208435c13.011307 0 23.559052 3.814911 23.559052 8.5208435l0 37.41501c0 4.7059326 -10.547745 8.5208435 -23.559052 8.5208435c-13.011307 0 -23.559067 -3.814911 -23.559067 -8.5208435l0 -37.41501" fill-rule="evenodd"/><path stroke="#000000" stroke-width="1.0" stroke-linejoin="round" stroke-linecap="butt" d="m201.96457 249.62582l0 0c0 4.7059326 -10.547745 8.5208435 -23.559052 8.5208435c-13.011307 0 -23.559067 -3.814911 -23.559067 -8.5208435l0 0c0 -4.7059326 10.54776 -8.5208435 23.559067 -8.5208435c13.011307 0 23.559052 3.814911 23.559052 8.5208435l0 37.41501c0 4.7059326 -10.547745 8.5208435 -23.559052 8.5208435c-13.011307 0 -23.559067 -3.814911 -23.559067 -8.5208435l0 -37.41501" fill-rule="evenodd"/><path fill="#000000" d="m175.37935 278.17l-0.09375 0q-1.046875 1.53125 -3.125 1.53125q-1.96875 0 -3.0625 -1.34375q-1.078125 -1.34375 -1.078125 -3.8125q0 -2.46875 1.09375 -3.828125q1.09375 -1.375 3.046875 -1.375q2.03125 0 3.109375 1.484375l0.125 0l-0.0625 -0.71875l-0.046875 -0.703125l0 -4.0625l1.515625 0l0 14.171875l-1.234375 0l-0.1875 -1.34375zm-3.03125 0.265625q1.546875 0 2.234375 -0.84375q0.703125 -0.84375 0.703125 -2.71875l0 -0.328125q0 -2.125 -0.703125 -3.03125q-0.703125 -0.90625 -2.25 -0.90625q-1.328125 0 -2.046875 1.046875q-0.703125 1.03125 -0.703125 2.90625q0 1.921875 0.703125 2.90625q0.703125 0.96875 2.0625 0.96875zm12.307419 -9.0625q1.96875 0 3.046875 1.34375q1.09375 1.34375 1.09375 3.796875q0 2.453125 -1.09375 3.828125q-1.09375 1.359375 -3.046875 1.359375q-0.96875 0 -1.78125 -0.359375q-0.8125 -0.359375 -1.359375 -1.109375l-0.109375 0l-0.3125 1.28125l-1.078125 0l0 -14.171875l1.5 0l0 3.4375q0 1.15625 -0.0625 2.078125l0.0625 0q1.0625 -1.484375 3.140625 -1.484375zm-0.21875 1.265625q-1.546875 0 -2.234375 0.890625q-0.6875 0.875 -0.6875 2.984375q0 2.109375 0.703125 3.015625q0.703125 0.90625 2.25 0.90625q1.390625 0 2.078125 -1.015625q0.6875 -1.015625 0.6875 -2.921875q0 -1.953125 -0.6875 -2.90625q-0.6875 -0.953125 -2.109375 -0.953125z" fill-rule="nonzero"/></g></svg>